<svg width="20" height="20" viewBox="0 0 20 20" fill="none" xmlns="http://www.w3.org/2000/svg">
<path d="M9.99989 4.03729L2.86698 11.4264C2.86698 11.4368 2.8649 11.4522 2.86073 11.4731C2.85664 11.4938 2.85447 11.5089 2.85447 11.5196V19.0018C2.85447 19.272 2.93307 19.5061 3.09023 19.7033C3.24735 19.9005 3.4334 19.9998 3.64843 19.9998H8.41187V14.0138H11.5879V20H16.3513C16.5663 20 16.7527 19.901 16.9096 19.7033C17.0667 19.5063 17.1456 19.272 17.1456 19.0018V11.5196C17.1456 11.4781 17.1411 11.4468 17.1331 11.4264L9.99989 4.03729Z" fill="#43625B"/>
<path d="M19.862 9.74279L17.1455 6.90573V0.545713C17.1455 0.400317 17.1083 0.280746 17.0336 0.187164C16.9596 0.0936912 16.8644 0.0469548 16.7485 0.0469548H14.3667C14.2508 0.0469548 14.1557 0.0936912 14.0812 0.187164C14.0069 0.280746 13.9697 0.400371 13.9697 0.545713V3.58538L10.9429 0.405285C10.6786 0.135077 10.3642 0 10.0003 0C9.6364 0 9.32212 0.135077 9.05751 0.405285L0.137848 9.74279C0.0551625 9.82578 0.00984396 9.93748 0.00141463 10.0778C-0.00697125 10.218 0.0219231 10.3405 0.0881846 10.4443L0.857296 11.5979C0.923557 11.6914 1.01028 11.7485 1.11782 11.7694C1.21711 11.7799 1.31639 11.7434 1.41567 11.6603L10 2.66567L18.5845 11.6603C18.6508 11.7328 18.7375 11.769 18.845 11.769H18.8823C18.9897 11.7485 19.0762 11.6909 19.1428 11.5977L19.912 10.4443C19.9781 10.3402 20.0071 10.218 19.9985 10.0776C19.99 9.93765 19.9446 9.82594 19.862 9.74279Z" fill="#43625B"/>
</svg>
