<svg width="36" height="36" viewBox="0 0 36 36" fill="none" xmlns="http://www.w3.org/2000/svg">
<mask id="mask0" mask-type="alpha" maskUnits="userSpaceOnUse" x="0" y="0" width="36" height="36">
<rect width="36" height="36" rx="8" fill="#C4C4C4"/>
</mask>
<g mask="url(#mask0)">
<path d="M-0.260314 -0.0834534C-3.55138 3.335 -2.87781 6.96633 -2.87781 17.9982C-2.87781 27.1594 -4.47623 36.3434 3.88929 38.5054C6.50155 39.1772 29.6472 39.1772 32.256 38.5019C35.739 37.6032 38.5728 34.7781 38.9602 29.852C39.0143 29.1644 39.0143 6.84418 38.9585 6.1427C38.5467 0.89549 35.3167 -2.12859 31.0606 -2.74108C30.0852 -2.88243 29.8897 -2.92431 24.8851 -2.93303C7.13324 -2.92431 3.24189 -3.71479 -0.260314 -0.0834534V-0.0834534Z" fill="url(#paint0_linear)"/>
<path d="M18.0583 2.54451C11.7222 2.54451 5.70543 1.98088 3.40727 7.87897C2.458 10.315 2.59585 13.4787 2.59585 18.0087C2.59585 21.9838 2.46847 25.7198 3.40727 28.1366C5.7002 34.0382 11.7658 33.4728 18.0548 33.4728C24.1221 33.4728 30.3779 34.1045 32.704 28.1366C33.6551 25.6762 33.5155 22.5596 33.5155 18.0087C33.5155 11.9675 33.8487 8.06742 30.9189 5.13932C27.9524 2.17283 23.9407 2.54451 18.0513 2.54451H18.0583ZM16.6727 5.33127C29.8893 5.31033 31.5715 3.84105 30.6432 24.2523C30.3134 31.4713 24.8166 30.6791 18.06 30.6791C5.74033 30.6791 5.3861 30.3266 5.3861 18.0017C5.3861 5.53369 6.3633 5.33825 16.6727 5.32778V5.33127ZM26.3121 7.89816C25.2878 7.89816 24.4572 8.72878 24.4572 9.75309C24.4572 10.7774 25.2878 11.608 26.3121 11.608C27.3364 11.608 28.167 10.7774 28.167 9.75309C28.167 8.72878 27.3364 7.89816 26.3121 7.89816V7.89816ZM18.0583 10.0672C13.6731 10.0672 10.1185 13.6235 10.1185 18.0087C10.1185 22.3938 13.6731 25.9484 18.0583 25.9484C22.4434 25.9484 25.9963 22.3938 25.9963 18.0087C25.9963 13.6235 22.4434 10.0672 18.0583 10.0672V10.0672ZM18.0583 12.854C24.8725 12.854 24.8812 23.1634 18.0583 23.1634C11.2458 23.1634 11.2353 12.854 18.0583 12.854Z" fill="white"/>
</g>
<defs>
<linearGradient id="paint0_linear" x1="-0.180009" y1="36.272" x2="38.7429" y2="2.58461" gradientUnits="userSpaceOnUse">
<stop stop-color="#FFDD55"/>
<stop offset="0.5" stop-color="#FF543E"/>
<stop offset="1" stop-color="#C837AB"/>
</linearGradient>
</defs>
</svg>
