<svg width="36" height="36" viewBox="0 0 36 36" fill="none" xmlns="http://www.w3.org/2000/svg">
<mask id="mask0" mask-type="alpha" maskUnits="userSpaceOnUse" x="0" y="0" width="36" height="36">
<rect width="36" height="36" rx="8" fill="#C4C4C4"/>
</mask>
<g mask="url(#mask0)">
<g clip-path="url(#clip0)">
<path d="M18.0992 44.9995C32.9564 44.9995 45.0005 32.9554 45.0005 18.0983C45.0005 3.24112 32.9564 -8.80298 18.0992 -8.80298C3.2421 -8.80298 -8.802 3.24112 -8.802 18.0983C-8.802 32.9554 3.2421 44.9995 18.0992 44.9995Z" fill="#55ACEE"/>
<path d="M34.5767 10.5302C33.4238 11.0414 32.1838 11.3871 30.8832 11.5415C32.2111 10.746 33.2301 9.48717 33.7111 7.98477C32.4686 8.72182 31.0918 9.25651 29.6278 9.54471C28.4548 8.29551 26.7837 7.51482 24.9331 7.51482C21.3826 7.51482 18.5029 10.3945 18.5029 13.945C18.5029 14.449 18.56 14.9395 18.6703 15.4104C13.3263 15.1424 8.58797 12.5826 5.41629 8.69113C4.8629 9.64062 4.54545 10.746 4.54545 11.9242C4.54545 14.1545 5.68148 16.1235 7.4059 17.2763C6.35235 17.2432 5.36019 16.9541 4.49366 16.4712C4.49318 16.4985 4.49318 16.5259 4.49318 16.5527C4.49318 19.6683 6.71057 22.2669 9.65159 22.8572C9.11259 23.0049 8.54337 23.0831 7.95786 23.0831C7.54257 23.0831 7.14024 23.0433 6.74798 22.9685C7.56607 25.5225 9.94028 27.3817 12.7547 27.434C10.5536 29.1589 7.78138 30.1865 4.76795 30.1865C4.25005 30.1865 3.73694 30.1563 3.23486 30.0964C6.07902 31.9215 9.45978 32.9856 13.0909 32.9856C24.9182 32.9856 31.3863 23.1876 31.3863 14.6897C31.3863 14.4111 31.38 14.1334 31.3676 13.8582C32.6249 12.9518 33.7149 11.8197 34.5767 10.5302Z" fill="#F1F2F2"/>
</g>
</g>
<defs>
<clipPath id="clip0">
<rect width="53.803" height="53.803" fill="white" transform="translate(-8.80298 -8.80298)"/>
</clipPath>
</defs>
</svg>
