<svg width="20" height="20" viewBox="0 0 20 20" fill="none" xmlns="http://www.w3.org/2000/svg">
<path d="M19.4141 4.35146H14.9609V0.627615C14.9609 0.281004 14.6986 0 14.375 0H0.585938C0.262344 0 0 0.281004 0 0.627615V16.8619C0 18.5923 1.31426 20 2.92969 20H17.0703C18.6857 20 20 18.5923 20 16.8619V4.97908C20 4.63247 19.7377 4.35146 19.4141 4.35146ZM2.92969 18.7448C1.96043 18.7448 1.17188 17.9001 1.17188 16.8619V1.25523H13.7891C13.7891 17.8438 13.7817 16.9215 13.8025 17.158C13.8534 17.7399 14.056 18.2885 14.3764 18.7448H2.92969ZM18.8281 16.8619C18.8281 17.9001 18.0396 18.7448 17.0703 18.7448C16.9388 18.7448 16.8479 18.7448 16.7188 18.7448C15.7495 18.7448 14.9609 17.9001 14.9609 16.8619V5.60669H18.8281V16.8619Z" fill="#43625B"/>
<path d="M11.875 3.01254H3.125C2.80141 3.01254 2.53906 3.29355 2.53906 3.64016C2.53906 3.98677 2.80141 4.26777 3.125 4.26777H11.875C12.1986 4.26777 12.4609 3.98677 12.4609 3.64016C12.4609 3.29355 12.1986 3.01254 11.875 3.01254Z" fill="#43625B"/>
<path d="M11.875 5.69037H3.125C2.80141 5.69037 2.53906 5.97137 2.53906 6.31798C2.53906 6.66459 2.80141 6.9456 3.125 6.9456H11.875C12.1986 6.9456 12.4609 6.66459 12.4609 6.31798C12.4609 5.97137 12.1986 5.69037 11.875 5.69037Z" fill="#43625B"/>
<path d="M11.875 15.7322H3.125C2.80141 15.7322 2.53906 16.0132 2.53906 16.3598C2.53906 16.7064 2.80141 16.9874 3.125 16.9874H11.875C12.1986 16.9874 12.4609 16.7064 12.4609 16.3598C12.4609 16.0132 12.1986 15.7322 11.875 15.7322Z" fill="#43625B"/>
<path d="M11.875 8.36819H7.5C7.17641 8.36819 6.91406 8.6492 6.91406 8.99581V13.682C6.91406 14.0286 7.17641 14.3096 7.5 14.3096H11.875C12.1986 14.3096 12.4609 14.0286 12.4609 13.682V8.99581C12.4609 8.6492 12.1986 8.36819 11.875 8.36819ZM11.2891 13.0544H8.08594V9.62342H11.2891V13.0544Z" fill="#43625B"/>
<path d="M3.125 10.6276H5C5.32359 10.6276 5.58594 10.3466 5.58594 9.99999C5.58594 9.65338 5.32359 9.37238 5 9.37238H3.125C2.80141 9.37238 2.53906 9.65338 2.53906 9.99999C2.53906 10.3466 2.80141 10.6276 3.125 10.6276Z" fill="#43625B"/>
<path d="M3.125 13.3054H5C5.32359 13.3054 5.58594 13.0244 5.58594 12.6778C5.58594 12.3312 5.32359 12.0502 5 12.0502H3.125C2.80141 12.0502 2.53906 12.3312 2.53906 12.6778C2.53906 13.0244 2.80141 13.3054 3.125 13.3054Z" fill="#43625B"/>
</svg>
