<svg width="20" height="20" viewBox="0 0 20 20" fill="none" xmlns="http://www.w3.org/2000/svg">
<path d="M2.61906 7.28094H0.585938C0.262344 7.28094 0 7.54329 0 7.86688V20H2.61906V7.28094Z" fill="#43625B"/>
<path d="M19.4141 7.28094H17.381V20H20V7.86688C20 7.54329 19.7377 7.28094 19.4141 7.28094Z" fill="#43625B"/>
<path d="M11.0189 16.0848V20H8.98108V16.0848H11.0189Z" fill="#43625B"/>
<path d="M15.6231 2.40664H13.7784V0.585938C13.7784 0.262344 13.5161 0 13.1925 0H6.89046C6.56686 0 6.30452 0.262344 6.30452 0.585938V2.40664H4.37686C4.05327 2.40664 3.79092 2.66898 3.79092 2.99258V20H7.80921V15.4989C7.80921 15.1753 8.07155 14.913 8.39514 14.913H11.6048C11.9284 14.913 12.1908 15.1753 12.1908 15.4989V20H16.209V2.99258C16.209 2.66898 15.9467 2.40664 15.6231 2.40664V2.40664ZM7.34674 12.8881H6.71573C6.39214 12.8881 6.12979 12.6257 6.12979 12.3021C6.12979 11.9786 6.39214 11.7162 6.71573 11.7162H7.34674C7.67034 11.7162 7.93268 11.9786 7.93268 12.3021C7.93268 12.6257 7.67034 12.8881 7.34674 12.8881ZM7.34674 10.5443H6.71573C6.39214 10.5443 6.12979 10.282 6.12979 9.9584C6.12979 9.6348 6.39214 9.37246 6.71573 9.37246H7.34674C7.67034 9.37246 7.93268 9.6348 7.93268 9.9584C7.93268 10.282 7.67034 10.5443 7.34674 10.5443ZM7.34674 8.20059H6.71573C6.39214 8.20059 6.12979 7.93824 6.12979 7.61465C6.12979 7.29105 6.39214 7.02871 6.71573 7.02871H7.34674C7.67034 7.02871 7.93268 7.29105 7.93268 7.61465C7.93268 7.93824 7.67034 8.20059 7.34674 8.20059ZM10.3155 12.8881H9.68448C9.36088 12.8881 9.09854 12.6257 9.09854 12.3021C9.09854 11.9786 9.36088 11.7162 9.68448 11.7162H10.3155C10.6391 11.7162 10.9014 11.9786 10.9014 12.3021C10.9014 12.6257 10.6391 12.8881 10.3155 12.8881ZM10.3155 10.5443H9.68448C9.36088 10.5443 9.09854 10.282 9.09854 9.9584C9.09854 9.6348 9.36088 9.37246 9.68448 9.37246H10.3155C10.6391 9.37246 10.9014 9.6348 10.9014 9.9584C10.9014 10.282 10.6391 10.5443 10.3155 10.5443ZM10.3155 8.20059H9.68448C9.36088 8.20059 9.09854 7.93824 9.09854 7.61465C9.09854 7.29105 9.36088 7.02871 9.68448 7.02871H10.3155C10.6391 7.02871 10.9014 7.29105 10.9014 7.61465C10.9014 7.93824 10.6391 8.20059 10.3155 8.20059ZM11.1809 4.69652H10.5859V5.29148C10.5859 5.61508 10.3236 5.87742 9.99999 5.87742C9.67639 5.87742 9.41405 5.61508 9.41405 5.29148V4.69652H8.81909C8.49549 4.69652 8.23315 4.43418 8.23315 4.11059C8.23315 3.78699 8.49549 3.52465 8.81909 3.52465H9.41405V2.92969C9.41405 2.60609 9.67639 2.34375 9.99999 2.34375C10.3236 2.34375 10.5859 2.60609 10.5859 2.92969V3.52465H11.1809C11.5045 3.52465 11.7668 3.78699 11.7668 4.11059C11.7668 4.43418 11.5045 4.69652 11.1809 4.69652V4.69652ZM13.2842 12.8881H12.6532C12.3296 12.8881 12.0673 12.6257 12.0673 12.3021C12.0673 11.9786 12.3296 11.7162 12.6532 11.7162H13.2842C13.6078 11.7162 13.8702 11.9786 13.8702 12.3021C13.8702 12.6257 13.6078 12.8881 13.2842 12.8881ZM13.2842 10.5443H12.6532C12.3296 10.5443 12.0673 10.282 12.0673 9.9584C12.0673 9.6348 12.3296 9.37246 12.6532 9.37246H13.2842C13.6078 9.37246 13.8702 9.6348 13.8702 9.9584C13.8702 10.282 13.6078 10.5443 13.2842 10.5443ZM13.2842 8.20059H12.6532C12.3296 8.20059 12.0673 7.93824 12.0673 7.61465C12.0673 7.29105 12.3296 7.02871 12.6532 7.02871H13.2842C13.6078 7.02871 13.8702 7.29105 13.8702 7.61465C13.8702 7.93824 13.6078 8.20059 13.2842 8.20059Z" fill="#43625B"/>
</svg>
