<svg width="60" height="60" viewBox="0 0 60 60" fill="none" xmlns="http://www.w3.org/2000/svg">
<mask id="mask0" mask-type="alpha" maskUnits="userSpaceOnUse" x="0" y="0" width="60" height="60">
<circle cx="30" cy="30" r="30" fill="#0BCAD4"/>
</mask>
<g mask="url(#mask0)">
<circle cx="30" cy="30" r="30" fill="#129B7F"/>
<path d="M49.52 0.707388C48.7202 -0.148934 47.6454 -0.233812 46.7158 0.485586C45.2069 1.65272 40.6157 5.20399 33.511 2.89586C27.7765 1.03267 23.2931 0.630779 19.8044 1.66646C16.4964 2.64877 14.1107 4.96966 12.7092 8.56811C9.18301 10.9525 7.58699 14.7642 8.09103 19.613C8.48368 23.3912 10.0667 27.0245 11.3028 28.9878C11.5713 29.4141 12.1343 29.5418 12.5605 29.2737C12.8356 29.1005 12.9855 28.8045 12.9858 28.5019H42.3607C42.3609 28.8045 42.5109 29.1005 42.7859 29.2737C42.9368 29.3688 43.1049 29.414 43.271 29.414C43.5739 29.414 43.8703 29.2631 44.0435 28.9878C45.3593 26.8979 47.1999 21.8387 47.2839 16.9681C50.0153 13.7355 50.7386 9.8813 50.9255 7.83923C51.211 4.72622 50.6591 1.92694 49.52 0.707388Z" fill="#3D5868"/>
<path d="M49.52 0.707388C48.7202 -0.148934 47.6454 -0.233812 46.7158 0.485586C46.4857 0.66349 46.1836 0.897088 45.8121 1.15671C46.7127 2.53555 47.1249 5.06208 46.8708 7.83923C46.6839 9.88142 45.9605 13.7355 43.2292 16.9681C43.151 21.4958 41.5551 26.185 40.2739 28.5019H42.3611C42.3613 28.8045 42.5112 29.1005 42.7863 29.2737C42.9372 29.3688 43.1053 29.414 43.2714 29.414C43.5743 29.414 43.8706 29.2631 44.0439 28.9878C45.3596 26.8979 47.2002 21.8387 47.2842 16.9681C50.0157 13.7355 50.739 9.8813 50.9259 7.83923C51.211 4.72622 50.6591 1.92694 49.52 0.707388Z" fill="#2A434F"/>
<path d="M34.4404 43.2841H21.5684C16.0126 43.2841 11.4926 47.8041 11.4926 53.36V61.3483C11.4926 61.852 11.9008 62.2603 12.4046 62.2603H43.6044C44.1082 62.2603 44.5165 61.852 44.5165 61.3483V53.3599C44.5163 47.804 39.9963 43.2841 34.4404 43.2841Z" fill="#F0EEEE"/>
<path d="M34.4404 43.2841H31.3701C36.9259 43.2841 41.4459 47.8041 41.4459 53.36V61.3483C41.4459 61.852 41.0377 62.2603 40.5339 62.2603H43.6042C44.108 62.2603 44.5162 61.852 44.5162 61.3483V53.3599C44.5163 47.804 39.9963 43.2841 34.4404 43.2841Z" fill="#D9D4D4"/>
<path d="M33.1232 44.1953H22.8857V62.2602H33.1232V44.1953Z" fill="#49B6F2"/>
<path d="M28.0045 45.1002V49.5793L33.1233 53.1404V44.1958L28.0045 45.1002Z" fill="#68C8FC"/>
<path d="M22.8856 53.1404L28.0045 49.5793V45.1002L22.8856 44.1958V53.1404Z" fill="#68C8FC"/>
<path d="M38.4261 53.9004C37.9223 53.9004 37.5141 53.4921 37.5141 52.9884V48.5904C37.5141 43.5115 33.3822 39.3794 28.3032 39.3794C23.2243 39.3794 19.0922 43.5113 19.0922 48.5904V52.378C19.0922 52.8816 18.684 53.29 18.1802 53.29C17.6764 53.29 17.2682 52.8816 17.2682 52.378V48.5904C17.2682 42.5057 22.2184 37.5554 28.3031 37.5554C34.3878 37.5554 39.3381 42.5057 39.3381 48.5904V52.9884C39.3381 53.4921 38.9298 53.9004 38.4261 53.9004Z" fill="#19303F"/>
<path d="M22.8856 32.557V43.5822C22.8856 46.4092 25.1775 48.7011 28.0045 48.7011C30.8316 48.7011 33.1233 46.4092 33.1233 43.5822V32.557H22.8856Z" fill="#FA9E3E"/>
<path d="M12.177 27.2384H18.1802V34.1222H12.177C10.2761 34.1222 8.73515 32.5812 8.73515 30.6804C8.73515 28.7795 10.276 27.2384 12.177 27.2384Z" fill="#FA9E3E"/>
<path d="M43.832 27.2384H37.8287V34.1222H43.832C45.7328 34.1222 47.2738 32.5812 47.2738 30.6804C47.2738 28.7795 45.7328 27.2384 43.832 27.2384Z" fill="#FA9E3E"/>
<path d="M41.6369 20.2036V27.9041C41.6369 35.439 35.5864 41.6591 28.0515 41.6845C20.5004 41.71 14.3719 35.596 14.3719 28.052V22.726C14.3719 22.618 14.4365 22.5217 14.5347 22.4768C17.8334 20.9703 18.9342 17.0614 19.2249 14.2626C19.2869 13.659 19.3113 13.1071 19.3121 12.6421C19.3126 12.3912 19.6222 12.2747 19.7893 12.4618C20.1735 12.8923 20.7708 13.529 21.5524 14.2625C25.1555 17.6473 32.6744 23.1013 41.2715 19.9465C41.4489 19.8815 41.6369 20.0145 41.6369 20.2036Z" fill="#FFB56B"/>
<path d="M28.0045 35.0809C26.3637 35.0809 24.8257 34.2746 23.8904 32.9238C23.6037 32.5097 23.7069 31.9416 24.121 31.6548C24.5348 31.368 25.1033 31.4713 25.39 31.8853C25.9848 32.7442 26.9621 33.2569 28.0046 33.2569C29.0471 33.2569 30.0244 32.7442 30.6192 31.8853C30.9059 31.4713 31.4739 31.368 31.8881 31.6548C32.3021 31.9415 32.4055 32.5096 32.1188 32.9238C31.1832 34.2746 29.6453 35.0809 28.0045 35.0809Z" fill="#19303F"/>
<path d="M38.8001 29.4701C38.8001 35.9851 33.6991 41.3083 27.2731 41.6648H27.2734C27.3937 41.6711 27.5144 41.676 27.6354 41.6793C27.6361 41.6793 27.6369 41.6794 27.6377 41.6794C27.7596 41.6827 27.8818 41.6844 28.0043 41.6844C28.3498 41.6844 28.6922 41.6713 29.0313 41.6461C29.0488 41.6447 29.0664 41.6433 29.0839 41.6419C29.2911 41.6257 29.497 41.6047 29.7015 41.5793C36.4299 40.7437 41.6368 35.0054 41.6368 28.0518V19.8073C40.677 20.1856 39.7301 20.4555 38.8001 20.6315V29.4699V29.4699V29.4701Z" fill="#EF9245"/>
<path d="M34.6101 28.3294C34.1063 28.3294 33.6981 27.9211 33.6981 27.4174V27.1742C33.6981 26.6705 34.1063 26.2622 34.6101 26.2622C35.1139 26.2622 35.5222 26.6705 35.5222 27.1742V27.4174C35.5222 27.9211 35.1139 28.3294 34.6101 28.3294Z" fill="#19303F"/>
<path d="M21.3988 28.3294C20.895 28.3294 20.4868 27.9211 20.4868 27.4174V27.1742C20.4868 26.6705 20.895 26.2622 21.3988 26.2622C21.9026 26.2622 22.3108 26.6705 22.3108 27.1742V27.4174C22.3108 27.9211 21.9025 28.3294 21.3988 28.3294Z" fill="#19303F"/>
<path d="M18.1802 51.4659C16.7079 51.4659 15.51 52.6638 15.51 54.1361C15.51 55.6083 16.7079 56.8062 18.1802 56.8062C19.6526 56.8062 20.8505 55.6083 20.8505 54.1361C20.8504 52.6638 19.6525 51.4659 18.1802 51.4659Z" fill="#78D6D1"/>
<path d="M28.0045 49.5793L25.2644 51.4854C25.9558 52.2051 26.9275 52.654 28.0045 52.654C29.0815 52.654 30.053 52.2053 30.7445 51.4854L28.0045 49.5793Z" fill="#304A56"/>
<path d="M28.0045 52.654C27.6066 52.654 27.2232 52.5923 26.863 52.4789L25.6028 62.2603H30.406L29.1458 52.4789C28.7856 52.5923 28.4024 52.654 28.0045 52.654Z" fill="#3D5868"/>
<path d="M40.8437 59.7121H40.4012C39.8974 59.7121 39.4892 59.3038 39.4892 58.8001C39.4892 58.4681 39.6665 58.1776 39.9317 58.0181V55.4057C39.9317 54.5755 39.2563 53.9003 38.4261 53.9003C37.596 53.9003 36.9206 54.5757 36.9206 55.4057V58.0181C37.1858 58.1776 37.3631 58.4681 37.3631 58.8001C37.3631 59.3038 36.9549 59.7121 36.4511 59.7121H36.0086C35.5048 59.7121 35.0966 59.3038 35.0966 58.8001V55.4058C35.0966 53.5699 36.5902 52.0765 38.426 52.0765C40.262 52.0765 41.7555 53.5701 41.7555 55.4058V58.8001C41.7556 59.3038 41.3473 59.7121 40.8437 59.7121Z" fill="#3D5868"/>
</g>
</svg>
