<svg width="60" height="60" viewBox="0 0 60 60" fill="none" xmlns="http://www.w3.org/2000/svg">
<mask id="mask0" mask-type="alpha" maskUnits="userSpaceOnUse" x="0" y="0" width="60" height="60">
<circle cx="30" cy="30" r="30" fill="#0BCAD4"/>
</mask>
<g mask="url(#mask0)">
<circle cx="30" cy="30" r="30" fill="#129B7F"/>
<path d="M37.9659 6.34155C41.5347 6.34155 44.4281 9.23499 44.4281 12.8037V19.0268C44.4281 24.4808 45.8183 29.8452 48.467 34.6135L45.6252 32.5464C43.2657 30.8307 41.1591 28.8064 39.3577 26.5358L33.1193 8.5298C34.3027 7.1881 36.0354 6.34155 37.9659 6.34155V6.34155Z" fill="#AB5A32"/>
<path d="M33.1193 8.52981C33.5474 8.04515 34.0491 7.62753 34.6032 7.28827C38.8456 8.0298 42.0048 11.8877 42.0048 16.3296V20.0737V24.9203C42.0048 26.2442 41.7075 27.4971 41.1873 28.6255C40.5508 27.9518 39.9329 27.2612 39.3569 26.5358L33.1193 8.52981Z" fill="#914C2A"/>
<path d="M32.6241 14.4992C33.4222 17.7546 35.7357 20.4097 38.7729 21.6811V21.6892V25.4332C38.7729 30.3259 34.9457 34.5222 30.0538 34.6119C25.0715 34.7032 21.0027 30.691 21.0027 25.7281V22.497H21.8105C26.9035 22.497 31.2081 19.1286 32.6241 14.4992V14.4992Z" fill="#FCE0B9"/>
<path d="M29.8882 7.95709C35.688 7.95709 40.3892 12.6583 40.3892 18.4581V22.497H38.7737V21.6892C38.7737 21.6868 38.7737 21.6835 38.7737 21.6811C35.7364 20.4089 33.4222 17.7545 32.6249 14.4992C31.2081 19.1286 26.9035 22.497 21.8105 22.497H21.0027H19.3872V18.4581C19.3872 12.6583 24.0884 7.95709 29.8882 7.95709Z" fill="#914C2A"/>
<path d="M29.8882 12.8037C34.793 12.8037 38.7688 16.7779 38.7737 21.6811C35.7365 20.4089 33.4222 17.7545 32.6249 14.4992C31.2081 19.1286 26.9035 22.497 21.8105 22.497H21.0027C21.0027 20.0801 21.7669 17.8458 23.0585 16.0073C24.6886 14.0509 27.1426 12.8037 29.8882 12.8037Z" fill="#AB5A32"/>
<path d="M33.5741 33.8058C32.4505 34.3195 31.2049 34.6135 29.8882 34.6135C28.5716 34.6135 27.326 34.3195 26.2024 33.8058H25.8494V35.5659V36.2291V37.1814L29.8882 42.028L33.9271 37.1814V36.2291V35.5659V33.8058H33.5741Z" fill="#FCE0B9"/>
<path d="M25.8494 36.0594V33.8058H26.2024C27.326 34.3195 28.5716 34.6135 29.8882 34.6135C31.2049 34.6135 32.4505 34.3195 33.5741 33.8058H33.9271V36.0594C32.7146 36.6798 31.3438 37.0368 29.8882 37.0368C28.4326 37.0368 27.0618 36.6798 25.8494 36.0594Z" fill="#F5CBA1"/>
<path d="M39.9853 22.497C41.1009 22.497 42.0048 23.4009 42.0048 24.5164C42.0048 25.6319 41.1009 26.5358 39.9853 26.5358H38.7737V22.497H39.9853Z" fill="#FCE0B9"/>
<path d="M19.7911 22.497H21.0027V26.5358H19.7911C18.6756 26.5358 17.7717 25.6319 17.7717 24.5164C17.7717 23.4009 18.6756 22.497 19.7911 22.497Z" fill="#FCE0B9"/>
<path d="M29.8882 7.95709C35.688 7.95709 40.3892 12.6583 40.3892 18.4581V20.0736C40.3892 14.2739 35.688 9.57263 29.8882 9.57263C24.0884 9.57263 19.3872 14.2739 19.3872 20.0736V18.4581C19.3872 12.6583 24.0884 7.95709 29.8882 7.95709Z" fill="#AB5A32"/>
<path d="M21.8105 22.497C26.5085 22.497 30.5288 19.6286 32.2372 15.5509C32.5135 15.6269 32.7841 15.7149 33.049 15.8159C34.0313 18.3248 35.953 20.3491 38.3779 21.4872C38.6331 22.3144 38.7721 23.1932 38.7729 24.1044C35.7357 22.8322 33.4214 20.1778 32.6241 16.9225C31.2081 21.5519 26.9035 24.9203 21.8105 24.9203H21.0027C21.0027 24.0875 21.0997 23.2781 21.2717 22.497H21.8105Z" fill="#F5CBA1"/>
<path d="M13.7328 30.5746C13.7328 29.6821 14.4558 28.9591 15.3484 28.9591V25.728H13.7328H12.1173V28.9591C13.0099 28.9591 13.7328 29.6821 13.7328 30.5746Z" fill="#A8A8A8"/>
<path d="M25.8493 35.5659L22.6611 37.885C22.6611 37.885 23.4268 42.8358 25.0416 45.2591L29.8882 42.028L25.8493 37.1814V35.5659Z" fill="#71CAF0"/>
<path d="M37.1582 37.9165L33.9271 35.5651V37.1806L29.8882 42.0272L34.7349 45.2583C36.3504 42.8358 37.1582 37.9165 37.1582 37.9165Z" fill="#71CAF0"/>
<path d="M13.7328 30.5747C13.7328 31.4673 13.0099 32.1902 12.1173 32.1902V37.8446C12.1173 38.7372 12.8402 39.4601 13.7328 39.4601C14.6254 39.4601 15.3484 38.7372 15.3484 37.8446V32.1902C14.4558 32.1902 13.7328 31.4673 13.7328 30.5747Z" fill="#A8A8A8"/>
<path d="M42.0048 46.7301C41.1477 45.709 40.571 42.8641 40.4256 42.0838C40.4006 41.9513 40.3892 41.8204 40.3892 41.6855V41.1847C40.3892 40.5975 40.6227 40.0345 41.0379 39.6193C41.2382 39.4189 41.4765 39.2808 41.7277 39.1726C40.3917 38.3793 38.8319 37.9173 37.159 37.9173C37.159 37.9173 36.3512 42.8358 34.7357 45.2591L29.889 42.028V53.1922H39.5823H43.6211C43.6203 53.1922 43.361 48.3456 42.0048 46.7301V46.7301Z" fill="#71CAF0"/>
<path d="M30.0546 34.6119C34.0062 34.5392 37.2607 31.7855 38.3666 28.1513H21.3469C22.4172 31.9301 25.9164 34.6878 30.0546 34.6119Z" fill="white"/>
<path d="M13.7328 30.5747C13.7328 31.4673 14.4558 32.1902 15.3484 32.1902H16.1561C17.0487 32.1902 17.7717 31.4673 17.7717 30.5747C17.7717 29.6821 17.0487 28.9591 16.1561 28.9591H15.3484C14.4558 28.9591 13.7328 29.6821 13.7328 30.5747Z" fill="#489ABD"/>
<path d="M52.6657 39.6201C52.0728 39.0272 51.1964 38.8204 50.4007 39.0853L47.5517 40.0353C47.0978 40.1863 46.6066 40.1863 46.1519 40.0353L43.3028 39.0853C42.7762 38.91 42.2196 38.9593 41.7277 39.1726C41.4773 39.2816 41.2382 39.4197 41.0379 39.6193C40.6227 40.0344 40.3892 40.5975 40.3892 41.1847V41.6855C40.3892 41.8204 40.4005 41.9513 40.4256 42.0838C40.571 42.8641 41.1477 45.709 42.0048 46.7301C43.361 48.3456 43.6203 53.1922 43.6203 53.1922L46.1292 48.1752C46.4273 47.5798 47.2763 47.5798 47.5743 48.1752L50.0825 53.1922C50.0825 53.1922 50.3708 48.2592 51.698 46.7301C52.5744 45.7203 53.1399 42.8511 53.2796 42.0773C53.303 41.9489 53.3135 41.822 53.3135 41.692V41.1847C53.3135 40.5975 53.0801 40.0345 52.6657 39.6201V39.6201Z" fill="white"/>
<path d="M13.7328 17.6503C15.5173 17.6503 16.9639 16.2037 16.9639 14.4193C16.9639 12.6348 15.5173 11.1882 13.7328 11.1882C11.9483 11.1882 10.5017 12.6348 10.5017 14.4193C10.5017 16.2037 11.9483 17.6503 13.7328 17.6503Z" fill="#71CAF0"/>
<path d="M43.6203 45.6032C42.7633 44.5822 42.1865 41.7372 42.0411 40.9569C42.0161 40.8245 42.0048 40.6936 42.0048 40.5587V40.0579C42.0048 39.6896 42.1057 39.3357 42.2762 39.0175C42.088 39.049 41.903 39.0958 41.7269 39.1726C41.4765 39.2816 41.2374 39.4198 41.0371 39.6193C40.6227 40.0345 40.3892 40.5975 40.3892 41.1847V41.6856C40.3892 41.8205 40.4005 41.9513 40.4256 42.0838C40.571 42.8641 41.1477 45.7091 42.0048 46.7301C43.361 48.3456 43.6203 53.1922 43.6203 53.1922L45.063 50.3061C44.861 48.7511 44.4434 46.5839 43.6203 45.6032Z" fill="#E3E3E3"/>
<path d="M49.1891 47.0483C48.891 46.453 48.0421 46.453 47.744 47.0483L47.3239 47.8884C47.4233 47.9603 47.5113 48.0516 47.5735 48.1752L50.0825 53.1922C50.0825 53.1922 50.1851 51.4733 50.5405 49.7503L49.1891 47.0483Z" fill="#E3E3E3"/>
<path d="M12.1173 28.9591H9.23112C7.76582 28.9591 6.63495 30.25 6.82881 31.7023L7.86276 39.4601H12.1173V32.1902C13.0099 32.1902 13.7328 31.4673 13.7328 30.5747C13.7328 29.6821 13.0099 28.9591 12.1173 28.9591Z" fill="#489ABD"/>
<path d="M25.0416 45.2591C23.4261 42.8358 22.6611 37.885 22.6611 37.885L22.6732 37.8761L22.6183 37.8446H21.0028C18.3258 37.8446 16.1561 40.0143 16.1561 42.6912V45.722L13.7328 39.4601H7.87084L7.88053 39.4868L7.86276 39.4601L9.69398 53.1922H29.8882V42.028L25.0416 45.2591Z" fill="#71CAF0"/>
<path d="M29.8882 42.028L25.0416 45.2591C23.4261 42.8358 22.6611 37.885 22.6611 37.885L22.6732 37.8761L22.6183 37.8446H21.0488C21.4898 40.1225 22.5941 44.9853 24.4156 47.718L29.8882 44.0701V42.028Z" fill="#489ABD"/>
<path d="M29.8882 44.2332L35.3964 47.9054C37.1961 45.205 38.344 40.5135 38.8472 38.0966C38.2987 37.9908 37.739 37.9165 37.1582 37.9165C37.1582 37.9165 36.3504 42.835 34.7349 45.2583L29.8882 42.0272V44.2332Z" fill="#489ABD"/>
<path d="M14.6561 12.8037L12.4347 14.975V15.6527L14.6561 13.4313V12.8037Z" fill="white"/>
<path d="M15.3484 13.6115L13.127 15.7828V16.4605L15.3484 14.2391V13.6115Z" fill="white"/>
<path d="M33.9271 26.3339C33.1476 26.3339 32.5135 25.6998 32.5135 24.9203C32.5135 24.1408 33.1476 23.5067 33.9271 23.5067C34.7066 23.5067 35.3407 24.1408 35.3407 24.9203C35.3407 25.6998 34.7066 26.3339 33.9271 26.3339ZM33.9271 24.7183C33.8156 24.7183 33.7251 24.8088 33.7251 24.9203C33.7251 25.1424 34.129 25.1424 34.129 24.9203C34.129 24.8088 34.0385 24.7183 33.9271 24.7183Z" fill="black"/>
<path d="M25.8494 26.3339C25.0699 26.3339 24.4358 25.6998 24.4358 24.9203C24.4358 24.1408 25.0699 23.5067 25.8494 23.5067C26.6289 23.5067 27.263 24.1408 27.263 24.9203C27.263 25.6998 26.6289 26.3339 25.8494 26.3339ZM25.8494 24.7183C25.7379 24.7183 25.6474 24.8088 25.6474 24.9203C25.6474 25.1424 26.0513 25.1424 26.0513 24.9203C26.0513 24.8088 25.9608 24.7183 25.8494 24.7183Z" fill="black"/>
<path d="M50.1447 38.3188L47.2957 39.2687C47.0057 39.3648 46.6979 39.3648 46.4071 39.2687L43.5581 38.3188C42.9604 38.1184 42.3376 38.1184 41.7616 38.2864C40.4296 37.5724 38.9554 37.1733 37.4473 37.1281L34.7348 35.1547V34.0642C37.0014 32.6999 38.6865 30.4163 39.3101 27.7265C41.0322 29.779 42.9838 31.6256 45.1502 33.2007L47.9928 35.2678C48.1341 35.3704 48.3005 35.4213 48.4669 35.4213C48.6584 35.4213 48.8506 35.3526 49.0025 35.2185C49.286 34.9665 49.3563 34.5529 49.1729 34.2217C46.5978 29.5851 45.2359 24.3314 45.2359 19.0268V12.8037C45.2359 8.79475 41.9749 5.53378 37.9659 5.53378C36.0782 5.53378 34.2752 6.27532 32.9254 7.57583C31.9577 7.30522 30.9416 7.14932 29.8882 7.14932C23.6522 7.14932 18.5794 12.2221 18.5794 18.4581V21.9727C17.6279 22.4283 16.9639 23.3928 16.9639 24.5164C16.9639 26.0754 18.2321 27.3436 19.7911 27.3436H20.3388C20.6732 29.3477 21.6175 31.191 23.0981 32.645C23.6886 33.225 24.3445 33.7104 25.0416 34.1151V35.1539L22.4535 37.0368H21.0027C18.2208 37.0368 15.9065 39.0595 15.4396 41.7098L14.8015 40.0086C15.6004 39.612 16.1561 38.7953 16.1561 37.8446V32.998C17.4922 32.998 18.5794 31.9107 18.5794 30.5747C18.5794 29.2386 17.4922 28.1514 16.1561 28.1514V25.728C16.1561 25.2813 15.7951 24.9203 15.3484 24.9203H14.5406V18.3765C16.3815 18.0009 17.7717 16.37 17.7717 14.4193C17.7717 12.1922 15.9598 10.3804 13.7328 10.3804C11.5058 10.3804 9.69396 12.1922 9.69396 14.4193C9.69396 16.3692 11.0841 18.0009 12.925 18.3765V24.9203H12.1173C11.6706 24.9203 11.3095 25.2813 11.3095 25.728V28.1514H9.23111C8.29975 28.1514 7.41282 28.5536 6.79972 29.254C6.18582 29.9551 5.90552 30.8865 6.0283 31.8089L8.89346 53.2989C8.94677 53.7003 9.28927 54 9.69396 54H43.6203V53.9895C43.9192 53.9895 44.2043 53.8312 44.3433 53.5533L46.8514 48.5362L49.3595 53.5533C49.4985 53.8312 49.7812 54 50.0825 54C50.1358 54 50.1907 53.9943 50.2448 53.983C50.6027 53.9095 50.8676 53.6042 50.8886 53.2391C50.9953 51.4369 51.4743 48.2196 52.3079 47.2592C53.2853 46.1331 53.8693 43.3609 54.0745 42.2235C54.106 42.0466 54.1213 41.8721 54.1213 41.692V41.1847C54.1213 40.3899 53.799 39.6112 53.236 39.0482C52.4218 38.2339 51.2376 37.9536 50.1447 38.3188ZM11.3095 14.4193C11.3095 13.0832 12.3968 11.9959 13.7328 11.9959C15.0689 11.9959 16.1561 13.0832 16.1561 14.4193C16.1561 15.7553 15.0689 16.8426 13.7328 16.8426C12.3968 16.8426 11.3095 15.7553 11.3095 14.4193ZM39.6315 42.2316C39.8424 43.3625 40.4345 46.1154 41.3868 47.2495C42.1219 48.1259 42.5726 50.5831 42.7479 52.3845H40.3892V48.3456H38.7737V52.3845H30.696V43.537L34.2865 45.9312C34.6589 46.1776 35.1589 46.0782 35.4069 45.7074C36.7365 43.7122 37.5265 40.2614 37.8213 38.7695C38.6493 38.8382 39.4619 39.0223 40.2317 39.3365C39.8222 39.8632 39.5815 40.5135 39.5815 41.1847V41.6855C39.5815 41.8713 39.5976 42.0523 39.6315 42.2316V42.2316ZM36.272 38.2703C36.0555 39.3923 35.4465 42.2114 34.4699 44.1105L31.0845 41.8536L34.5474 37.6976C34.6686 37.5538 34.7348 37.3704 34.7348 37.1814V37.1523L36.272 38.2703ZM21.8105 25.728V23.3047C26.4293 23.3047 30.5231 20.7506 32.5724 16.7666C33.6759 19.1261 35.587 21.0543 37.9659 22.1908V25.4332C37.9659 26.0907 37.8835 26.7281 37.7422 27.3436H21.9713C21.8654 26.8177 21.8105 26.2773 21.8105 25.728V25.728ZM21.8412 21.6892C21.9842 19.8168 22.6215 18.034 23.6789 16.5243C25.2209 14.6729 27.4835 13.6115 29.8882 13.6115C30.6443 13.6115 31.3761 13.7157 32.0708 13.9112C31.9707 14.0049 31.8939 14.1252 31.8519 14.2634C30.4965 18.6948 26.4754 21.6755 21.8412 21.6892V21.6892ZM33.4416 14.4362C35.7219 15.559 37.4005 17.7255 37.8472 20.3095C35.6832 19.0098 34.0814 16.8967 33.4416 14.4362ZM39.9853 23.3047C40.6534 23.3047 41.197 23.8484 41.197 24.5164C41.197 25.1844 40.6534 25.728 39.9853 25.728H39.5669C39.5702 25.6295 39.5815 25.5326 39.5815 25.4332V23.3047H39.9853ZM37.9659 7.14932C41.0831 7.14932 43.6203 9.68653 43.6203 12.8037V19.0268C43.6203 23.5018 44.542 27.9438 46.3053 32.0424L46.0994 31.8929C44.2084 30.5173 42.4878 28.9236 40.9498 27.1626C42.033 26.7668 42.8125 25.7353 42.8125 24.5164C42.8125 23.3928 42.1486 22.4283 41.197 21.9727V18.4581C41.197 13.9289 38.5144 10.0242 34.6605 8.22043C35.6153 7.53221 36.7696 7.14932 37.9659 7.14932V7.14932ZM29.8882 8.76486C35.2332 8.76486 39.5815 13.1131 39.5815 18.4581V21.6892H39.5798C39.5798 21.686 39.5807 21.6835 39.5807 21.6803C39.5766 16.3409 35.2284 11.9959 29.8882 11.9959C27.0029 11.9959 24.2871 13.2698 22.3978 15.5437C21.1134 17.3717 20.3727 19.4824 20.2265 21.6892H20.195V18.4581C20.195 13.1131 24.5432 8.76486 29.8882 8.76486V8.76486ZM19.7911 25.728C19.1231 25.728 18.5794 25.1844 18.5794 24.5164C18.5794 23.8484 19.1231 23.3047 19.7911 23.3047H20.195V25.728H19.7911ZM22.4842 28.9591H37.1961C35.9239 31.7645 33.1985 33.7468 30.0393 33.8041C27.8454 33.834 25.788 33.023 24.229 31.4931C23.4778 30.7548 22.8929 29.8945 22.4842 28.9591ZM29.8858 35.4213C29.9464 35.4213 30.0078 35.4205 30.07 35.4197C31.1378 35.4003 32.1605 35.1911 33.1193 34.8373V36.8882L29.8882 40.7655L26.6571 36.8882V34.8607C27.6822 35.2226 28.767 35.4213 29.8858 35.4213V35.4213ZM25.0416 37.1515V37.1806C25.0416 37.3696 25.1078 37.553 25.2282 37.6984L28.6911 41.8544L25.3074 44.1105C24.3364 42.2074 23.7475 39.3656 23.5416 38.242L25.0416 37.1515ZM12.925 37.8446V32.8493C13.2271 32.7419 13.4994 32.5787 13.7328 32.3679C13.9663 32.5779 14.2385 32.7419 14.5406 32.8493V37.8446C14.5406 38.2905 14.1787 38.6524 13.7328 38.6524C13.2869 38.6524 12.925 38.2905 12.925 37.8446ZM16.9639 30.5747C16.9639 31.0206 16.602 31.3824 16.1561 31.3824H15.3484C14.9025 31.3824 14.5406 31.0206 14.5406 30.5747C14.5406 30.1288 14.9025 29.7669 15.3484 29.7669H16.1561C16.602 29.7669 16.9639 30.1288 16.9639 30.5747ZM14.5406 26.5358V28.3C14.2385 28.4074 13.9663 28.5714 13.7328 28.7814C13.4994 28.5706 13.2271 28.4074 12.925 28.3V26.5358H14.5406ZM8.01542 30.3186C8.32237 29.968 8.76503 29.7669 9.23111 29.7669H12.1173C12.5632 29.7669 12.925 30.1288 12.925 30.5747C12.925 31.0206 12.5632 31.3824 12.1173 31.3824H9.69396V32.998H11.3095V37.8446C11.3095 38.1289 11.3677 38.3987 11.4581 38.6524H8.57035L7.6293 31.5957C7.56791 31.1336 7.70846 30.6684 8.01542 30.3186V30.3186ZM8.78603 40.2679H13.173L15.3484 46.0693V47.5378H13.7328V49.1534H16.1561C16.6028 49.1534 16.9639 48.7923 16.9639 48.3456V42.6912C16.9639 40.4642 18.7757 38.6524 21.0027 38.6524H21.9745C22.2451 40.108 23.0133 43.6735 24.3695 45.7066C24.5246 45.9401 24.7815 46.0661 25.0424 46.0661C25.1959 46.0661 25.3518 46.0217 25.4899 45.9304L29.0804 43.537V52.3845H10.4016L8.78603 40.2679ZM52.5058 41.692C52.5058 41.7736 52.5001 41.8511 52.4848 41.9343C52.1835 43.604 51.635 45.5709 51.0881 46.201C50.3046 47.1025 49.8506 48.8723 49.5913 50.4054L48.2957 47.8149C48.0202 47.2632 47.4669 46.9215 46.8506 46.9215C46.2343 46.9215 45.6809 47.264 45.4055 47.8141L44.1147 50.3957C43.8602 48.8868 43.4087 47.1477 42.6219 46.2107C42.0823 45.5669 41.5282 43.6 41.218 41.9319C41.2035 41.8503 41.197 41.7687 41.197 41.6855V41.1847C41.197 40.8148 41.3472 40.4529 41.609 40.1912C41.987 39.8123 42.5395 39.6807 43.0468 39.8511L45.8958 40.801C46.0501 40.8527 46.2076 40.8915 46.3667 40.9174L48.8264 42.5563L49.7222 41.2122L48.6721 40.5127L50.6552 39.8519C51.1633 39.6815 51.715 39.8131 52.093 40.192C52.3547 40.4537 52.505 40.8156 52.505 41.1855V41.692H52.5058Z" fill="black"/>
</g>
</svg>
