<svg width="60" height="60" viewBox="0 0 60 60" fill="none" xmlns="http://www.w3.org/2000/svg">
<mask id="mask0" mask-type="alpha" maskUnits="userSpaceOnUse" x="0" y="0" width="60" height="60">
<circle cx="30" cy="30" r="30" fill="#0BCAD4"/>
</mask>
<g mask="url(#mask0)">
<circle cx="30" cy="30" r="30" fill="#129B7F"/>
<path d="M14.4768 20.9669H15.8477V20.1154C15.8477 19.2151 16.5776 18.4852 17.4779 18.4852H24.2009C25.4063 18.4852 26.5134 17.82 27.0794 16.7557L27.8734 15.2628C28.1564 14.7306 28.71 14.3981 29.3127 14.3981H33.2114C35.0121 14.3981 36.4717 15.8577 36.4717 17.6584V20.967H37.8425C38.6981 20.967 39.4764 21.297 40.0579 21.8362C40.2071 21.0133 40.2877 20.1663 40.2877 19.3004C40.2877 11.4977 33.9624 5.17233 26.1597 5.17233C18.357 5.17233 12.0316 11.4977 12.0316 19.3004C12.0316 20.1663 12.1121 21.0133 12.2614 21.8362C12.843 21.2969 13.6212 20.9669 14.4768 20.9669Z" fill="#BB5D4C"/>
<path d="M14.4768 20.9669H15.8477V20.1154C15.8477 19.6091 16.0785 19.1566 16.4408 18.8577C16.6518 12.0029 21.745 6.37791 28.3605 5.34319C27.6432 5.23104 26.9083 5.17224 26.1597 5.17224C18.357 5.17224 12.0316 11.4976 12.0316 19.3003C12.0316 20.1663 12.1121 21.0132 12.2614 21.8361C12.843 21.2969 13.6212 20.9669 14.4768 20.9669Z" fill="#A44F3E"/>
<path d="M34.2548 31.8525C33.809 32.3692 33.3075 32.8361 32.7576 33.2419L35.1347 37.5028H38.7484C38.632 35.1511 37.9167 33.1052 36.8742 31.8525H34.2548Z" fill="#BB5D4C"/>
<path d="M37.9531 28.6981C37.9163 28.6994 37.8795 28.7009 37.8425 28.7009H36.0298C35.651 29.8733 35.0414 30.9411 34.2548 31.8525H36.9036C37.8682 31.8525 38.6576 31.0632 38.6576 30.0986C38.6576 29.5272 38.3794 29.0189 37.9531 28.6981Z" fill="#FD8087"/>
<path d="M40.3569 54.9627C38.4471 54.1109 37.1151 52.1968 37.1151 49.9706V46.4477C37.1151 43.8526 39.2189 41.7488 41.814 41.7488H45.3725C44.8306 39.3193 42.6633 37.5027 40.0705 37.5027H12.2491C9.24804 37.5027 6.81519 39.9355 6.81519 42.9365V58.0981C6.81519 58.6984 7.30174 59.1849 7.90196 59.1849H38.223V58.4215C38.2229 56.9153 39.094 55.6036 40.3569 54.9627Z" fill="#EAF6FF"/>
<path d="M11.2165 58.0981V42.9367C11.2165 39.9356 13.6494 37.5028 16.6504 37.5028H12.249C9.24794 37.5028 6.81508 39.9356 6.81508 42.9367V58.0981C6.81508 58.6984 7.30163 59.1849 7.90186 59.1849H12.3033C11.7031 59.1849 11.2165 58.6984 11.2165 58.0981Z" fill="#D8ECFE"/>
<path d="M47.7174 54.9627C47.038 55.2657 46.2861 55.4356 45.4942 55.4356H42.5801C41.7881 55.4356 41.0363 55.2657 40.3569 54.9627C39.094 55.6036 38.2229 56.9153 38.2229 58.4215V59.1849H49.308C49.608 59.1849 49.8514 58.9416 49.8514 58.6415V58.4215C49.8514 56.9153 48.9802 55.6036 47.7174 54.9627V54.9627Z" fill="#FFBD86"/>
<path d="M42.5801 55.4356C41.7881 55.4356 41.0363 55.2657 40.3569 54.9627C39.094 55.6036 38.2229 56.9153 38.2229 58.4215V59.1849H41.5375V58.4215C41.5375 57.2235 42.0883 56.1481 42.9491 55.4356H42.5801Z" fill="#F6A96C"/>
<path d="M20.6354 43.3482V33.9226C20.2613 33.7198 19.902 33.4931 19.5618 33.2419L15.3865 40.7258C15.2666 40.9407 15.3061 41.2092 15.4827 41.3805L19.0316 44.8241L20.6354 43.3482Z" fill="white"/>
<path d="M36.9329 40.7259L32.7576 33.2419C32.4173 33.493 32.058 33.7198 31.6839 33.9226V43.3482L33.2877 44.8242L36.8367 41.3806C37.0133 41.2092 37.0527 40.9407 36.9329 40.7259V40.7259Z" fill="white"/>
<path d="M20.6354 43.3482L15.8331 47.7675C15.6601 47.9267 15.6091 48.1791 15.7069 48.393L20.6354 59.1848V43.3482Z" fill="white"/>
<path d="M34.2018 49.0564C34.2018 48.1097 34.7678 47.2966 35.5792 46.9328L31.5753 43.2482V59.1849H31.684L35.3846 51.0818C34.6789 50.6819 34.2018 49.9255 34.2018 49.0564V49.0564Z" fill="white"/>
<path d="M27.0945 41.9024L26.1597 44.3505L25.2247 41.9024L20.6354 46.1821V59.1849H31.684V46.1821L27.0945 41.9024Z" fill="#FE99A0"/>
<path d="M20.6354 46.1821V59.1849H22.8815V44.0876L20.6354 46.1821Z" fill="#FD8087"/>
<path d="M27.3427 35.022H24.9766C23.4051 35.022 21.9266 34.6247 20.6354 33.9255V46.1821L26.1597 41.0307L31.684 46.1821V33.9255C30.3928 34.6247 28.9142 35.022 27.3427 35.022V35.022Z" fill="#FDB4BA"/>
<path d="M27.3427 35.022H24.9766C24.1042 35.022 23.2612 34.897 22.4621 34.6685L26.1597 44.3505L29.8572 34.6685C29.0581 34.897 28.2153 35.022 27.3427 35.022Z" fill="#EA9B58"/>
<path d="M24.9766 35.022C24.1041 35.022 23.2612 34.897 22.4621 34.6685L26.1597 44.3505L27.4366 41.0067L25.1511 35.022H24.9766Z" fill="#D88A55"/>
<path d="M15.8477 25.8931V20.9669H14.4768C12.6762 20.9669 11.2165 22.4265 11.2165 24.2272V25.4406C11.2165 27.2413 12.6762 28.7009 14.4768 28.7009H16.2896C16.0039 27.8161 15.8477 26.8731 15.8477 25.8931Z" fill="#EA9B58"/>
<path d="M37.8425 20.9669H36.4716V25.8931C36.4716 26.8731 36.3155 27.8162 36.0298 28.7009H37.8425C39.6432 28.7009 41.1028 27.2413 41.1028 25.4406V24.2272C41.1028 22.4266 39.6432 20.9669 37.8425 20.9669V20.9669Z" fill="#EA9B58"/>
<path d="M27.8733 15.2628L27.0794 16.7557C26.5134 17.82 25.4063 18.4852 24.2009 18.4852H17.4779C16.5776 18.4852 15.8477 19.2151 15.8477 20.1154V25.8931C15.8477 30.9349 19.9348 35.022 24.9766 35.022H27.3427C32.3845 35.022 36.4716 30.9349 36.4716 25.8931V17.6584C36.4716 15.8577 35.012 14.3981 33.2113 14.3981H29.3126C28.7099 14.3981 28.1564 14.7306 27.8733 15.2628V15.2628Z" fill="#F6A96C"/>
<path d="M19.2587 25.8931V20.1154C19.2587 19.2151 19.9885 18.4852 20.8888 18.4852H17.4779C16.5776 18.4852 15.8477 19.2151 15.8477 20.1154V25.8931C15.8477 30.9349 19.9348 35.022 24.9766 35.022H27.3427C27.5181 35.022 27.6921 35.0159 27.8651 35.0062C23.0666 34.7352 19.2587 30.7595 19.2587 25.8931Z" fill="#EA9B58"/>
<path d="M23.4978 28.7009C23.154 28.7009 22.8962 29.0165 22.9647 29.3535C23.267 30.8414 24.5825 31.9612 26.1597 31.9612C27.7368 31.9612 29.0523 30.8414 29.3547 29.3535C29.4231 29.0165 29.1655 28.7009 28.8215 28.7009H23.4978Z" fill="#FD8087"/>
<path d="M25.2468 29.3535C25.1783 29.0165 25.436 28.7009 25.7799 28.7009H23.4978C23.154 28.7009 22.8963 29.0165 22.9647 29.3535C23.267 30.8414 24.5825 31.9612 26.1597 31.9612C26.5611 31.9612 26.9455 31.8883 27.3008 31.7556C26.2606 31.3669 25.4722 30.4626 25.2468 29.3535Z" fill="#FE646F"/>
<path d="M37.1151 49.9706V46.7285H36.5297C35.244 46.7285 34.2018 47.7707 34.2018 49.0564C34.2018 50.342 35.244 51.3843 36.5297 51.3843H37.3007C37.1803 50.9332 37.1151 50.4596 37.1151 49.9706V49.9706Z" fill="#FFBD86"/>
<path d="M51.5445 46.7285H50.9591V49.9706C50.9591 50.4596 50.8939 50.9333 50.7735 51.3843H51.5445C52.8302 51.3843 53.8724 50.3421 53.8724 49.0564C53.8724 47.7707 52.8302 46.7285 51.5445 46.7285V46.7285Z" fill="#FFBD86"/>
<path d="M45.4942 55.4355H42.5801C39.5619 55.4355 37.1151 52.9888 37.1151 49.9706V46.4477C37.1151 43.8526 39.2189 41.7488 41.814 41.7488H46.2603C48.8554 41.7488 50.9592 43.8526 50.9592 46.4477V49.9706C50.9591 52.9888 48.5123 55.4355 45.4942 55.4355V55.4355Z" fill="#FED2A4"/>
<path d="M39.7987 49.9706V46.4477C39.7987 46.0472 39.8491 45.6586 39.9433 45.2875C39.3838 45.436 38.7961 45.5159 38.1897 45.5159H37.2079C37.1473 45.8172 37.1151 46.1286 37.1151 46.4477V49.9706C37.1151 52.9888 39.5619 55.4355 42.5801 55.4355H45.2636C42.2455 55.4355 39.7987 52.9888 39.7987 49.9706Z" fill="#FFBD86"/>
<path d="M44.2914 41.7489H41.8139C39.5379 41.7489 37.6401 43.3672 37.2078 45.516H38.1896C40.8595 45.5159 43.1692 43.9823 44.2914 41.7489Z" fill="#BB5D4C"/>
<path d="M46.2077 45.5159H49.8484C50.1889 45.5159 50.5231 45.4898 50.85 45.4413C50.3891 43.33 48.5098 41.7488 46.2603 41.7488H41.814C41.265 41.7488 40.7384 41.8439 40.2486 42.0169C41.4166 44.104 43.6462 45.5159 46.2077 45.5159V45.5159Z" fill="#BB5D4C"/>
<path d="M21.2692 24.6658C21.7194 24.6658 22.0843 24.3008 22.0843 23.8507V21.5183C22.0843 21.0681 21.7194 20.7032 21.2692 20.7032C20.8189 20.7032 20.4541 21.0681 20.4541 21.5183V23.8507C20.4541 24.3008 20.8189 24.6658 21.2692 24.6658Z" fill="black"/>
<path d="M31.0502 24.6658C31.5004 24.6658 31.8652 24.3008 31.8652 23.8507V21.5183C31.8652 21.0681 31.5004 20.7032 31.0502 20.7032C30.5999 20.7032 30.2351 21.0681 30.2351 21.5183V23.8507C30.2351 24.3008 30.5999 24.6658 31.0502 24.6658Z" fill="black"/>
<path d="M24.4977 25.8124L25.8561 26.7609C25.9983 26.8601 26.1609 26.9077 26.3219 26.9077C26.5793 26.9077 26.8325 26.7861 26.9909 26.5592C27.2486 26.1901 27.1583 25.6819 26.7892 25.4242L25.9629 24.8472L26.9157 22.485C27.0841 22.0675 26.882 21.5926 26.4647 21.4242C26.0468 21.2557 25.5723 21.4577 25.4038 21.8752L24.2084 24.8391C24.0662 25.1915 24.1863 25.5951 24.4977 25.8124Z" fill="black"/>
<path d="M26.1597 32.7763C28.09 32.7763 29.7696 31.405 30.1533 29.516C30.235 29.1146 30.1331 28.7024 29.8739 28.3851C29.6146 28.0678 29.2311 27.8858 28.8215 27.8858H23.4978C23.0882 27.8858 22.7047 28.0677 22.4454 28.3851C22.1861 28.7024 22.0844 29.1146 22.166 29.5157C22.5497 31.405 24.2293 32.7763 26.1597 32.7763ZM28.466 29.516C28.1261 30.4778 27.2041 31.1461 26.1597 31.1461C25.1153 31.1461 24.1934 30.4779 23.8533 29.516H28.466Z" fill="black"/>
<path d="M42.1896 49.1186V48.0037C42.1896 47.5536 41.8248 47.1887 41.3745 47.1887C40.9243 47.1887 40.5594 47.5536 40.5594 48.0037V49.1186C40.5594 49.5687 40.9243 49.9336 41.3745 49.9336C41.8248 49.9336 42.1896 49.5687 42.1896 49.1186Z" fill="black"/>
<path d="M46.6997 47.1886C46.2495 47.1886 45.8846 47.5535 45.8846 48.0036V49.1184C45.8846 49.5686 46.2495 49.9335 46.6997 49.9335C47.15 49.9335 47.5148 49.5686 47.5148 49.1184V48.0036C47.5148 47.5535 47.15 47.1886 46.6997 47.1886Z" fill="black"/>
<path d="M44.8439 51.0127C44.399 51.4576 43.6752 51.4576 43.2303 51.0127C42.9119 50.6944 42.3959 50.6944 42.0775 51.0127C41.7592 51.331 41.7592 51.8471 42.0775 52.1653C42.6179 52.7056 43.3274 52.9757 44.0371 52.9757C44.7468 52.9757 45.4564 52.7057 45.9967 52.1653C46.315 51.847 46.315 51.3309 45.9967 51.0127C45.6784 50.6944 45.1624 50.6944 44.8439 51.0127Z" fill="black"/>
<path d="M51.7484 45.9208C51.4822 43.1267 49.1229 40.9338 46.2602 40.9338H45.9882C45.1516 38.4677 42.8157 36.6877 40.0704 36.6877H39.5028C39.3278 34.9985 38.8597 33.4964 38.1847 32.324C38.9537 31.8796 39.4727 31.0488 39.4727 30.0986C39.4727 29.7961 39.4195 29.5061 39.323 29.2365C40.8401 28.6426 41.9179 27.1656 41.9179 25.4406V24.2272C41.9179 23.2123 41.544 22.2835 40.9281 21.5693C41.0429 20.8219 41.1028 20.0643 41.1028 19.3002C41.1028 15.9008 39.9295 12.5731 37.7993 9.92991C37.5168 9.57942 37.0038 9.52422 36.6531 9.80678C36.3026 10.0892 36.2477 10.6024 36.53 10.9529C38.4551 13.3415 39.4727 16.2279 39.4727 19.3003C39.4727 19.6922 39.4532 20.0819 39.419 20.4693C38.9337 20.265 38.4011 20.1519 37.8425 20.1519H37.2867V17.6584C37.2867 15.4112 35.4585 13.583 33.2113 13.583H29.3127C28.4066 13.583 27.5793 14.08 27.1537 14.8801L26.3597 16.3731C25.9343 17.1732 25.107 17.6702 24.2009 17.6702H17.478C16.1297 17.6702 15.0327 18.7671 15.0327 20.1155V20.1519H14.4768C13.9182 20.1519 13.3855 20.265 12.9004 20.4693C12.8661 20.0819 12.8467 19.6922 12.8467 19.3003C12.8467 11.9595 18.8188 5.98731 26.1597 5.98731C28.9678 5.98731 31.6532 6.85162 33.9257 8.48678C34.2911 8.74956 34.8004 8.66675 35.0634 8.30116C35.3263 7.93579 35.2433 7.42642 34.8779 7.16353C32.3262 5.32764 29.3116 4.35715 26.1597 4.35715C17.9201 4.35715 11.2165 11.0606 11.2165 19.3003C11.2165 20.0644 11.2765 20.822 11.3913 21.5694C10.7753 22.2836 10.4014 23.2123 10.4014 24.2273V25.4406C10.4014 27.6878 12.2296 29.516 14.4768 29.516H15.716C16.3168 31.0463 17.2865 32.3925 18.515 33.4451L16.7059 36.6877H12.249C8.80323 36.6877 6 39.4909 6 42.9367V58.0981C6 59.1468 6.85323 60 7.90186 60H12.9554C13.4056 60 13.7704 59.6351 13.7704 59.1849C13.7704 58.7348 13.4056 58.3698 12.9554 58.3698H7.90186C7.75199 58.3698 7.63016 58.2479 7.63016 58.0981V42.9367C7.63016 40.3898 9.7021 38.3179 12.249 38.3179H15.7965L14.6747 40.3285C14.3754 40.8647 14.4742 41.5379 14.915 41.9655L17.8449 44.8084L15.2812 47.1677C14.8474 47.567 14.7205 48.1955 14.9655 48.7317L19.3671 58.3698H16.7591C16.3088 58.3698 15.944 58.7348 15.944 59.1849C15.944 59.6351 16.3088 60 16.7591 60H49.308C50.0571 60 50.6664 59.3906 50.6664 58.6415V58.4215C50.6664 57.0881 50.1067 55.8837 49.2105 55.029C50.1759 54.3178 50.9306 53.3374 51.3641 52.1995H51.5445C53.2775 52.1995 54.6875 50.7895 54.6875 49.0565C54.6875 47.392 53.3867 46.0264 51.7484 45.9208V45.9208ZM46.2602 42.564C47.7737 42.564 49.0868 43.4347 49.7274 44.7009H46.2076C44.424 44.7009 42.7496 43.9053 41.6185 42.569C41.6833 42.5657 41.7484 42.564 41.8139 42.564H46.2602ZM40.0704 38.3179C41.8997 38.3179 43.4829 39.3876 44.2301 40.9338H41.814C38.9513 40.9338 36.5919 43.1267 36.3258 45.9208C36.1376 45.933 35.954 45.9625 35.7761 46.0064L34.4744 44.8084L37.4043 41.9655C37.8451 41.5378 37.9439 40.8646 37.6447 40.3287L36.5228 38.3178H40.0704V38.3179ZM40.8161 44.0998C40.0601 44.4668 39.2224 44.6764 38.348 44.6989C38.7 44.0041 39.2542 43.4288 39.9334 43.0512C39.9344 43.0515 39.9354 43.0518 39.9365 43.0521C40.1996 43.4298 40.4947 43.7797 40.8161 44.0998ZM36.3281 50.5542C35.5891 50.4551 35.0169 49.822 35.0169 49.0564C35.0169 48.3006 35.5747 47.6741 36.3 47.563V49.9706C36.3 50.1674 36.3103 50.3618 36.3281 50.5542ZM30.8689 35.1906V44.3075L28.0517 41.6805L30.4768 35.3305C30.6087 35.2866 30.7394 35.2398 30.8689 35.1906ZM37.6385 29.516C37.7659 29.6763 37.8425 29.8785 37.8425 30.0986C37.8425 30.6163 37.4213 31.0375 36.9035 31.0375H35.8498C36.1423 30.5555 36.3949 30.0468 36.6034 29.516H37.6385ZM34.6148 32.6676H36.4789C37.1451 33.5974 37.6695 34.9818 37.8661 36.6877H35.6134L33.8045 33.4451C34.0889 33.2013 34.3594 32.9416 34.6148 32.6676V32.6676ZM32.499 34.4513L36.1194 40.9409L33.2728 43.7028L32.4989 42.9907V34.4513H32.499ZM37.8425 21.7819C39.1907 21.7819 40.2877 22.8788 40.2877 24.2272V25.4406C40.2877 26.7889 39.1907 27.8858 37.8425 27.8858H37.086C37.2175 27.2418 37.2867 26.5754 37.2867 25.8931V21.7819H37.8425ZM14.4768 27.8858C13.1286 27.8858 12.0316 26.7889 12.0316 25.4406V24.2272C12.0316 22.8788 13.1286 21.7819 14.4768 21.7819H15.0326V25.8931C15.0326 26.5754 15.1017 27.2418 15.2333 27.8858H14.4768ZM16.6628 25.8931V20.1154C16.6628 19.6659 17.0284 19.3003 17.4779 19.3003H24.2008C25.711 19.3003 27.0898 18.4718 27.799 17.1384L28.593 15.6455C28.7348 15.3787 29.0106 15.213 29.3126 15.213H33.2112C34.5595 15.213 35.6564 16.3099 35.6564 17.6583V25.893C35.6564 30.4772 31.927 34.2068 27.3426 34.2068H24.9766C20.3924 34.2069 16.6628 30.4773 16.6628 25.8931V25.8931ZM21.8426 35.3307L24.2676 41.6806L21.4505 44.3076V35.1907C21.5799 35.2398 21.7106 35.2866 21.8426 35.3307ZM19.8203 55.4381L16.5302 48.2338L19.8203 45.2061V55.4381ZM19.8203 42.9906L19.0464 43.7027L16.1999 40.9408L19.8203 34.4512V42.9906ZM25.3446 58.3698H21.4505V46.5366L24.8953 43.3242L25.3446 44.5008V58.3698ZM23.7521 35.7617C24.1535 35.8112 24.5621 35.8371 24.9766 35.8371H27.3426C27.7571 35.8371 28.1657 35.8112 28.5671 35.7617L26.1597 42.0658L23.7521 35.7617ZM31.684 50.9254C31.2337 50.9254 30.8689 51.2904 30.8689 51.7405V58.3698H26.9747V44.5008L27.4241 43.3242L30.869 46.5366V47.9368C30.869 48.3869 31.2338 48.7519 31.6841 48.7519C32.1343 48.7519 32.4992 48.3869 32.4992 47.9368V45.2061L34.2907 46.8547C33.7324 47.4221 33.3868 48.1994 33.3868 49.0565C33.3868 49.9543 33.7659 50.7648 34.3717 51.3381L32.4993 55.4382V51.7405C32.499 51.2904 32.1342 50.9254 31.684 50.9254ZM37.4091 58.3698H32.9522L35.8087 52.115C36.0404 52.1696 36.2815 52.1995 36.5296 52.1995H36.71C37.1435 53.3374 37.8982 54.3178 38.8636 55.029C37.9791 55.8725 37.4234 57.0571 37.4091 58.3698ZM39.0384 58.3698C39.0557 57.3245 39.6002 56.4056 40.4165 55.8663C41.0913 56.1148 41.8201 56.2506 42.5801 56.2506H45.4941C46.2541 56.2506 46.9829 56.1148 47.6577 55.8663C48.474 56.4056 49.0184 57.3245 49.0358 58.3698H39.0384ZM50.144 49.9706C50.144 52.5345 48.0582 54.6205 45.4941 54.6205H42.5801C40.016 54.6205 37.9302 52.5345 37.9302 49.9706V46.4477C37.9302 46.4086 37.932 46.3699 37.9331 46.331H38.1897C39.6438 46.331 41.0246 45.9251 42.2058 45.195C43.3905 45.9243 44.7709 46.331 46.2076 46.331H49.8483C49.9455 46.331 50.0431 46.3287 50.1409 46.3249C50.1422 46.3658 50.144 46.4065 50.144 46.4477V49.9706ZM51.7461 50.5542C51.764 50.3619 51.7743 50.1674 51.7743 49.9706V47.563C52.4996 47.6741 53.0574 48.3006 53.0574 49.0564C53.0573 49.822 52.4852 50.4551 51.7461 50.5542V50.5542Z" fill="black"/>
</g>
</svg>
