<svg width="60" height="60" viewBox="0 0 60 60" fill="none" xmlns="http://www.w3.org/2000/svg">
<mask id="mask0" mask-type="alpha" maskUnits="userSpaceOnUse" x="0" y="0" width="60" height="60">
<circle cx="30" cy="30" r="30" fill="#0BCAD4"/>
</mask>
<g mask="url(#mask0)">
<circle cx="30" cy="30" r="30" fill="#129B7F"/>
<path d="M36.6551 23.0977L16.7461 22.8936L16.2239 15.3232L16.1565 13.5016C16.0437 10.4745 18.4412 7.95452 21.4573 7.90265C21.5202 7.9016 21.5833 7.90747 21.6452 7.91859L30.5765 9.52466L36.7663 18.2453L36.6551 23.0977Z" fill="#A79BA7"/>
<path d="M18.136 25.2524C16.831 25.2524 15.773 24.1945 15.773 22.8894C15.773 21.5844 16.8309 20.5264 18.136 20.5264H21.8929V25.2523H18.136V25.2524Z" fill="#FFCEBF"/>
<path d="M34.8262 25.2524C36.1312 25.2524 37.1892 24.1945 37.1892 22.8894C37.1892 21.5844 36.1313 20.5264 34.8262 20.5264H31.4974V25.2126L34.8262 25.2524Z" fill="#FFDFCF"/>
<path d="M27.2814 8.9322L21.6574 7.92089C21.5874 7.90827 21.5161 7.90161 21.445 7.90302C21.059 7.91046 20.6839 7.95787 20.3221 8.04216C19.9223 8.93193 19.7191 9.87963 19.7191 10.8547V10.9695C19.7191 13.3386 21.0409 15.4593 23.1685 16.504L23.2441 16.5412L27.2813 17.9169V8.9322H27.2814Z" fill="#918291"/>
<path d="M29.8663 7.90184C33.8662 7.90184 37.066 11.2226 36.9171 15.2198L36.7306 19.8028L23.7478 15.3241C22.14 14.5346 21.0334 12.8813 21.0334 10.9694V10.8546C21.0334 10.0617 21.2034 9.28798 21.5214 8.58089C21.7333 8.10985 22.0109 7.66834 22.3483 7.27063C22.6309 6.9375 23.1299 6.89448 23.469 7.16996L24.1221 7.70032C24.2824 7.83087 24.4822 7.90184 24.689 7.90184H29.8663Z" fill="#A79BA7"/>
<path d="M30.997 36.5624C30.9269 36.5335 30.8813 36.466 30.8813 36.3906V28.9447H22.4164V36.3906C22.4164 36.466 22.3708 36.5335 22.3007 36.5624L20.7069 39.6474L26.5258 43.6405L32.5566 37.9074L30.997 36.5624Z" fill="#FFDFCF"/>
<path d="M24.2108 32.4973V32.6877H22.4164V36.3907C22.4164 36.466 22.3708 36.5335 22.3007 36.5624L20.7069 39.6474L23.3181 41.4393L24.4981 39.1553C24.5682 39.1264 24.6138 39.0589 24.6138 38.9836V36.2459C24.6138 35.9201 24.9101 35.6792 25.2305 35.7376C25.6684 35.8175 26.113 35.8584 26.5616 35.8584C27.4187 35.8584 28.2629 35.713 29.0707 35.4264L29.1352 35.4034C29.7507 35.1851 30.3344 34.909 30.8812 34.5829V32.4973H24.2108Z" fill="#FFCEBF"/>
<path d="M32.8899 41.032L31.9886 36.9646L30.997 36.5625L27.0959 39.856C26.8067 40.0987 26.3835 40.0943 26.0997 39.8464L22.3007 36.5749L21.3869 36.9473L18.3844 41.2994L24.2334 49.3544L26.6202 50.2705H26.6342L26.6357 50.2667C26.9041 50.2018 30.6858 49.2875 30.7342 49.2875C30.7843 49.2875 32.8899 41.032 32.8899 41.032V41.032Z" fill="#C8EFFE"/>
<path d="M21.3318 39.9274L24.6174 38.5474L22.3007 36.5624L21.3869 36.9472L19.4398 39.9274H21.3318Z" fill="#99E6FC"/>
<path d="M26.5258 50.3338H11.4334C10.9524 50.3338 10.5624 49.9438 10.5624 49.4627V47.9724C10.5624 43.9235 13.0123 40.2777 16.7606 38.7487L21.3868 36.9472L26.5258 50.3338Z" fill="#F9F3F1"/>
<path d="M13.931 49.527C13.931 45.4781 16.3809 41.8323 20.1292 40.3033L22.3683 39.5038L21.3868 36.9472L16.7606 38.7487C13.0123 40.2777 10.5624 43.9235 10.5624 47.9724V49.4627C10.5624 49.9438 10.9524 50.3338 11.4334 50.3338H13.9311V49.527H13.931Z" fill="#F3EAE6"/>
<path d="M42.4056 47.9091V49.9492C42.4056 50.1266 42.2619 50.2704 42.0844 50.2704H26.6341L31.9886 36.9645L36.2074 38.6854C39.9558 40.2143 42.4056 43.8602 42.4056 47.9091V47.9091Z" fill="#F9F3F1"/>
<path d="M34.338 20.545L32.0414 20.5258V15.8756H21.3682L20.7108 19.4983V28.2139L24.2147 32.687L27.1124 34.0481L29.9332 33.6022C32.627 32.1201 34.3528 29.271 34.3528 26.1244L34.338 20.545Z" fill="#FFEEE6"/>
<path d="M23.9925 19.2349C24.3348 19.2349 24.6474 19.4182 24.826 19.7101C25.8694 21.4148 27.7483 22.555 29.8892 22.555C31.6574 22.555 33.2464 21.7768 34.3341 20.5456L34.3218 15.8762H22.3683H21.8929H18.7895V26.1514C18.7895 27.952 19.3546 29.6553 20.343 31.0616C21.3322 32.4679 22.7446 33.5754 24.4392 34.1843C25.7841 34.668 27.2544 34.6706 28.602 34.1931L28.6668 34.1703C29.1078 34.0138 29.5325 33.8228 29.9331 33.6024C29.2853 33.5834 28.6368 33.4643 28.018 33.2417C26.3234 32.6328 24.911 31.5253 23.9218 30.119C22.9334 28.7127 22.3683 27.0093 22.3683 25.2088V20.2036C22.3683 19.6686 22.802 19.2349 23.337 19.2349H23.9925Z" fill="#FFDFCF"/>
<path d="M37.0911 17.9205C37.5956 17.9205 38.0046 17.5115 38.0046 17.007V16.2373C38.0046 15.7328 37.5956 15.3238 37.0911 15.3238H16.2001C15.6956 15.3238 15.2866 15.7328 15.2866 16.2373V17.007C15.2866 17.5115 15.6956 17.9205 16.2001 17.9205H37.0911Z" fill="#EFEDEF"/>
<path d="M29.8893 21.2408C32.4401 21.2408 34.508 19.1729 34.508 16.6221C34.508 14.0712 32.4401 12.0034 29.8893 12.0034C27.3384 12.0034 25.2706 14.0712 25.2706 16.6221C25.2706 19.1729 27.3384 21.2408 29.8893 21.2408Z" fill="#C9BFC8"/>
<path d="M29.8893 18.6121C28.792 18.6121 27.8993 17.7194 27.8993 16.6221C27.8993 15.5249 28.7919 14.6321 29.8893 14.6321C30.9866 14.6321 31.8794 15.5249 31.8794 16.6221C31.8794 17.7194 30.9866 18.6121 29.8893 18.6121Z" fill="#FEE97D"/>
<path d="M43.6811 29.3265C37.8579 29.3265 33.1378 34.0474 33.1378 39.8698C33.1378 44.246 35.8038 47.9996 39.6002 49.5948L40.3654 48.8645L47.8019 48.8097L48.3455 49.3278C51.8286 47.6064 54.2243 44.0181 54.2243 39.8699C54.2243 34.0474 49.5043 29.3265 43.6811 29.3265Z" fill="#C8EFFE"/>
<path d="M43.6461 29.2576C37.8229 29.2576 33.1028 33.9785 33.1028 39.8008C33.1028 44.1772 35.7691 47.9299 39.5656 49.5249L40.3145 48.4623C38.1734 46.5324 36.8267 43.738 36.8267 40.6284C36.8267 34.8061 41.5468 30.0851 47.37 30.0851C47.5027 30.0851 47.638 30.0872 47.7696 30.0921C46.504 29.5542 45.1082 29.2576 43.6461 29.2576Z" fill="#99E6FC"/>
<path d="M20.536 48.8747H15.123C14.8703 48.8747 14.6654 48.6698 14.6654 48.417V46.3985C14.6654 46.1458 14.8703 45.9408 15.123 45.9408H20.5359C20.7886 45.9408 20.9936 46.1457 20.9936 46.3985V48.417C20.9936 48.6698 20.7887 48.8747 20.536 48.8747Z" fill="#F3EAE6"/>
<path d="M47.3092 35.9079C47.3092 35.1973 47.8857 34.6208 48.5954 34.6208C48.9503 34.6208 49.2727 34.7653 49.5058 34.9975C49.7389 35.2306 49.8826 35.5522 49.8826 35.9079V42.0036C49.8826 42.9297 49.5917 43.834 49.0519 44.5875L48.3448 45.5741L48.3455 49.3278C46.9339 50.0314 45.3649 50.4151 43.68 50.4151C42.1335 50.4151 40.8899 50.1229 39.5669 49.5245L39.5908 46.0131L39.1895 45.6258C38.096 44.57 37.4783 43.1137 37.4783 41.5935V39.1279C37.4783 38.773 37.622 38.4506 37.855 38.2184C38.0872 37.9853 38.4097 37.8417 38.7645 37.8417C39.0081 37.8417 39.2368 37.91 39.4313 38.0274L39.5908 38.0265V34.8372C39.5908 34.4814 39.7345 34.1599 39.9675 33.9268C40.2006 33.6946 40.5213 33.55 40.877 33.55C41.5876 33.55 42.1642 34.1266 42.1642 34.8372V33.7507C42.1642 33.395 42.3079 33.0734 42.5409 32.8403C42.7731 32.6081 43.0956 32.4636 43.4504 32.4636C44.161 32.4636 44.7367 33.0401 44.7367 33.7507V35.3357C44.7367 34.9809 44.8804 34.6593 45.1134 34.4262C45.3456 34.194 45.6681 34.0495 46.0229 34.0495C46.7335 34.0495 47.3092 34.626 47.3092 35.3357V35.9079Z" fill="#FFCEBF"/>
<path d="M45.0761 49.3751C44.185 49.3751 43.4028 49.301 42.6468 49.1236C41.6752 48.8957 40.988 48.0293 40.9876 47.0314L40.9871 45.5308C40.987 45.1744 40.8421 44.8333 40.5856 44.5858C39.492 43.5305 38.8744 42.076 38.8744 40.5564V38.0879C38.8744 38.0063 38.8835 37.926 38.8981 37.8486C38.8543 37.844 38.8095 37.8416 38.7645 37.8416C38.4097 37.8416 38.0872 37.9853 37.855 38.2184C37.622 38.4506 37.4783 38.773 37.4783 39.1279V41.5935C37.4783 43.1137 38.096 44.57 39.1895 45.6258L39.5908 46.013L39.5669 49.5245C40.8899 50.1229 42.1335 50.4151 43.68 50.4151C45.3649 50.4151 46.9339 50.0314 48.3455 49.3278L48.3454 48.8605C47.3181 49.1966 46.2241 49.3751 45.0761 49.3751V49.3751Z" fill="#FFB09E"/>
<path d="M49.8826 41.2211V42.0036C49.8826 42.9297 49.5917 43.8339 49.052 44.5875L48.3449 45.5741V46.6299H44.9978C44.1435 46.6299 43.4504 45.9368 43.4504 45.0816V44.9476C43.4504 44.52 43.6239 44.1327 43.9034 43.8532C44.1838 43.5728 44.5711 43.3994 44.9978 43.3994V42.6905C44.9978 41.8792 45.6558 41.2211 46.4672 41.2211H49.8826Z" fill="#FE99A0"/>
<path d="M40.877 44.2037V44.7268C40.877 45.4374 40.3014 46.013 39.5908 46.013L39.1895 45.6258C38.4219 44.8854 37.8892 43.947 37.6404 42.928L37.6885 42.9166H39.5908C40.3014 42.9166 40.877 43.4931 40.877 44.2037Z" fill="#FE99A0"/>
<path d="M43.4347 34.6729C43.4347 34.0353 43.6118 33.4134 43.9417 32.8928L44.0967 32.6375C43.9036 32.5218 43.6791 32.4635 43.4377 32.4635C43.0819 32.4635 42.7612 32.6081 42.5282 32.8403C42.2951 33.0734 42.1514 33.3949 42.1769 33.748L42.1361 39.8952C42.8529 39.8967 43.4348 39.316 43.4348 38.5992V34.6729H43.4347Z" fill="#FFB09E"/>
<path d="M47.2903 39.8979C48.008 39.8979 48.5898 39.3161 48.5898 38.5984V36.2125C48.5898 35.6701 48.7209 35.1408 48.9625 34.6739C48.8463 34.6393 48.7237 34.6201 48.5966 34.6201C47.908 34.6201 47.3464 35.1633 47.3135 35.8446L47.2903 39.8979Z" fill="#FFB09E"/>
<path d="M44.7106 39.8979C45.4297 39.8979 46.0126 39.315 46.0126 38.5959V35.7719C46.0126 35.1855 46.1641 34.6134 46.4447 34.12C46.3131 34.0745 46.1725 34.0487 46.0255 34.0487C45.6706 34.0487 45.3482 34.1932 45.116 34.4254C44.933 34.6085 44.8015 34.8564 44.7464 35.1345C44.7399 35.1671 44.7374 35.2003 44.7372 35.2336L44.7106 39.8979Z" fill="#FFB09E"/>
<path d="M40.8815 35.2598C40.8815 34.6766 41.0025 34.1062 41.2279 33.5982C41.1166 33.5669 40.9996 33.5489 40.8783 33.5489C40.5225 33.5489 40.2018 33.6935 39.9688 33.9257C39.7357 34.1587 39.592 34.4803 39.592 34.836L39.5847 39.8968C40.3009 39.8968 40.8814 39.3162 40.8814 38.6V35.2598H40.8815Z" fill="#FFB09E"/>
<path d="M14.3908 40.1638C14.1462 39.8958 13.7306 39.8768 13.4624 40.1215C11.2621 42.13 10 44.9887 10 47.9647V50.326C10 50.6889 10.2941 50.9832 10.6571 50.9832C11.0202 50.9832 11.3143 50.6889 11.3143 50.326V47.9647C11.3143 45.3572 12.4202 42.8522 14.3485 41.0922C14.6165 40.8475 14.6355 40.4318 14.3908 40.1638V40.1638Z" fill="black"/>
<path d="M20.5359 45.2838H15.123C14.5083 45.2838 14.0082 45.7839 14.0082 46.3986V48.4171C14.0082 49.0318 14.5083 49.5319 15.123 49.5319H20.5359C21.1506 49.5319 21.6507 49.0318 21.6507 48.4171V46.3986C21.6507 45.7839 21.1506 45.2838 20.5359 45.2838V45.2838ZM20.3364 48.2176H15.3226V46.5982H20.3365V48.2176H20.3364Z" fill="black"/>
<path d="M29.8893 19.2693C31.349 19.2693 32.5366 18.0818 32.5366 16.6221C32.5366 15.1625 31.349 13.9749 29.8893 13.9749C28.4297 13.9749 27.2422 15.1625 27.2422 16.6221C27.2422 18.0818 28.4296 19.2693 29.8893 19.2693V19.2693ZM29.8893 15.2892C30.6244 15.2892 31.2223 15.8872 31.2223 16.6221C31.2223 17.3571 30.6244 17.955 29.8893 17.955C29.1544 17.955 28.5565 17.3571 28.5565 16.6221C28.5565 15.8872 29.1544 15.2892 29.8893 15.2892Z" fill="black"/>
<path d="M51.3001 31.6214C51.0351 31.3733 50.6192 31.3871 50.3712 31.6521C50.1231 31.9171 50.1369 32.3329 50.4018 32.581C52.4215 34.4717 53.5337 37.0352 53.5337 39.7992C53.5337 43.2927 51.7124 46.3687 48.9694 48.1277V45.7133L49.5535 44.898C50.177 44.0278 50.5065 43.0018 50.5065 41.9312V35.8356C50.5065 34.7639 49.6347 33.892 48.563 33.892C48.207 33.892 47.8732 33.9887 47.5859 34.1565C47.2346 33.6518 46.6505 33.3206 45.9902 33.3206C45.7639 33.3206 45.5467 33.3598 45.3446 33.4312C45.2228 32.4759 44.4053 31.7347 43.4173 31.7347C42.593 31.7347 41.8874 32.2508 41.6054 32.9766C41.3715 32.8767 41.1143 32.8213 40.8444 32.8213C39.7727 32.8213 38.9008 33.6932 38.9008 34.7649V37.1204C38.845 37.1156 38.7886 37.1126 38.7314 37.1126C37.6598 37.1126 36.7878 37.9845 36.7878 39.0562V41.5214C36.7878 43.211 37.485 44.853 38.7004 46.0266L38.9007 46.22V48.4695C35.8399 46.7872 33.7607 43.5317 33.7607 39.7993C33.7607 34.3479 38.1957 29.9129 43.6472 29.9129C45.2547 29.9129 46.851 30.308 48.2637 31.0555C48.5848 31.2253 48.9821 31.1026 49.1519 30.782C49.3217 30.4611 49.1992 30.0635 48.8784 29.8938C47.2771 29.0466 45.4682 28.5987 43.6472 28.5987C38.5541 28.5987 34.2446 32.0158 32.8897 36.6777L31.4217 36.0787V33.4061C33.6367 31.6957 35.0059 29.0225 35.0059 26.125V25.9037C36.5878 25.8103 37.8463 24.4944 37.8463 22.8894C37.8463 22.2792 37.664 21.7109 37.3514 21.2356L37.4518 18.5343C38.1442 18.3706 38.6616 17.7489 38.6616 17.0071V16.2374C38.6616 15.5402 38.2048 14.9485 37.5749 14.7438C37.5098 12.4098 36.3854 10.2145 34.5032 8.79566C34.2134 8.57705 33.8013 8.63506 33.5828 8.92481C33.3644 9.21466 33.4222 9.62665 33.7121 9.84517C35.2436 10.9996 36.1708 12.773 36.2577 14.6667H34.7877C34.009 12.7233 32.1074 11.3464 29.8891 11.3464C27.6709 11.3464 25.7693 12.7233 24.9907 14.6667H23.906C22.5357 13.9347 21.6908 12.5314 21.6908 10.9693V10.8549C21.6908 9.64382 22.1415 8.48102 22.9425 7.58932L23.7074 8.21089C23.984 8.43555 24.3326 8.55926 24.6889 8.55926H29.8661C30.3861 8.55926 30.9074 8.62331 31.4157 8.74975C31.7676 8.83728 32.1244 8.62288 32.212 8.27065C32.2996 7.91841 32.0851 7.56189 31.7328 7.47436C31.121 7.32216 30.4929 7.24506 29.8661 7.24506H24.6889C24.6334 7.24506 24.5791 7.22578 24.5361 7.19082L23.3138 6.19722C23.0639 5.99429 22.7042 6.002 22.4635 6.21553C22.114 6.52535 21.8051 6.87171 21.5378 7.24506C19.8828 7.24883 18.3395 7.90659 17.1906 9.09883C16.0385 10.2946 15.438 11.8669 15.4996 13.5262L15.5473 14.8104C15.0066 15.0588 14.6294 15.6041 14.6294 16.2372V17.0069C14.6294 17.692 15.071 18.2745 15.6839 18.4887L15.7775 21.0061C15.364 21.5228 15.1159 22.1775 15.1159 22.8894C15.1159 24.5535 16.4688 25.9074 18.1324 25.9094V26.1511C18.1324 29.0122 19.472 31.6588 21.6423 33.3723V36.0786L16.6073 38.1329C16.4017 38.2168 16.1927 38.3107 15.9684 38.4198C15.642 38.5787 15.5063 38.9719 15.6651 39.2983C15.7789 39.532 16.0129 39.668 16.2565 39.668C16.353 39.668 16.451 39.6466 16.5435 39.6016C16.7418 39.5051 16.925 39.4226 17.1039 39.3497L20.8233 37.8322L25.9218 50.5867C26.0216 50.8363 26.2632 50.9999 26.532 50.9999C26.8008 50.9999 27.0424 50.8362 27.1422 50.5867L32.2407 37.8322L32.5955 37.977C32.498 38.5703 32.4465 39.1788 32.4465 39.7992C32.4465 45.9754 37.4711 51 43.6472 51C49.8233 51 54.8479 45.9754 54.8479 39.7992C54.848 36.713 53.5548 33.7323 51.3001 31.6214V31.6214ZM35.006 19.876V18.6121C35.006 18.6005 35.0049 18.5892 35.0043 18.5776H36.135L36.0769 20.142C35.7471 19.9915 35.386 19.8985 35.006 19.876V19.876ZM35.006 24.5849V21.1957C35.8622 21.286 36.5321 22.0097 36.5321 22.8894C36.5321 23.7691 35.8623 24.4947 35.006 24.5849V24.5849ZM37.0911 15.9808C37.2324 15.9808 37.3475 16.0959 37.3475 16.2372V17.0069C37.3475 17.1483 37.2324 17.2633 37.0911 17.2633H35.1248C35.1503 17.0529 35.1651 16.8392 35.1651 16.622C35.1651 16.4048 35.1504 16.1911 35.1248 15.9807H37.0911V15.9808ZM29.8893 12.6606C32.0738 12.6606 33.8509 14.4377 33.8509 16.6221C33.8509 18.8065 32.0738 20.5836 29.8893 20.5836C27.705 20.5836 25.9279 18.8065 25.9279 16.6221C25.9279 14.4377 27.705 12.6606 29.8893 12.6606V12.6606ZM24.6539 17.2634H16.2002C16.0587 17.2634 15.9437 17.1483 15.9437 17.007V16.2373C15.9437 16.0959 16.0587 15.9809 16.2002 15.9809H24.6539C24.6283 16.1913 24.6135 16.405 24.6135 16.6222C24.6135 16.8394 24.6283 17.053 24.6539 17.2634ZM18.1324 19.8693C17.754 19.8697 17.392 19.9407 17.0579 20.0689L17.0025 18.5777H18.1324V19.8693ZM18.1371 10.0109C18.8612 9.25943 19.7855 8.7798 20.7943 8.61937C20.5214 9.32506 20.3767 10.0821 20.3767 10.8547V10.9692C20.3767 12.3707 20.895 13.6745 21.7969 14.6665H16.8572L16.813 13.4774C16.7648 12.1781 17.235 10.9471 18.1371 10.0109V10.0109ZM16.4302 22.8894C16.4302 21.95 17.1934 21.1857 18.1324 21.1837V24.595C17.1935 24.593 16.4302 23.8287 16.4302 22.8894ZM19.4467 26.1511V18.5776H24.9908C25.7695 20.521 27.671 21.8979 29.8893 21.8979C31.3822 21.8979 32.7312 21.2736 33.6917 20.2737V26.125C33.6917 29.4536 31.584 32.4377 28.447 33.5506L28.3822 33.5736C27.1815 33.9996 25.86 33.9969 24.661 33.566C21.5422 32.4451 19.4467 29.4653 19.4467 26.1511V26.1511ZM24.2166 34.8028C24.963 35.0711 25.7475 35.2052 26.5323 35.2052C27.3077 35.2052 28.0831 35.0742 28.8215 34.8122L28.8863 34.7892C29.3104 34.6388 29.7176 34.4579 30.1075 34.2515V36.3646L27.4537 38.6454C26.9108 39.1121 26.0946 39.1089 25.5553 38.638L22.9566 36.3693V34.2383C23.358 34.4557 23.7784 34.6454 24.2166 34.8028V34.8028ZM26.532 48.5724L22.0402 37.3357L22.0571 37.3288L24.6908 39.6281C25.2079 40.0794 25.8583 40.3053 26.5089 40.3053C27.1522 40.3053 27.7956 40.0844 28.3103 39.6421L31.0037 37.3275L31.0238 37.3357L26.532 48.5724ZM49.1923 41.9311C49.1923 42.3675 49.118 42.7936 48.9749 43.1962H48.0211C47.6581 43.1962 47.364 43.4905 47.364 43.8534C47.364 44.2163 47.6581 44.5105 48.0211 44.5105H48.2142L47.778 45.1195C47.698 45.231 47.6551 45.3649 47.6551 45.5022V45.9005H44.965C44.4739 45.9005 44.0744 45.5009 44.0744 45.0099V44.8753C44.0744 44.3843 44.4739 43.9847 44.965 43.9847C45.328 43.9847 45.6221 43.6905 45.6221 43.3276V42.6187C45.6221 42.1708 45.9865 41.8064 46.4344 41.8064H49.1922V41.9311H49.1923ZM38.5196 43.5021H39.5581C39.9051 43.5021 40.1874 43.7844 40.1874 44.1314V44.6545C40.1874 44.9231 40.018 45.1522 39.7808 45.2423L39.6137 45.081C39.1461 44.6298 38.7766 44.0904 38.5196 43.5021V43.5021ZM40.2152 49.071V46.4823C40.9642 46.2123 41.5016 45.4956 41.5016 44.6546V44.1315C41.5016 43.0598 40.6298 42.1879 39.558 42.1879H38.1494C38.1191 41.9677 38.1022 41.7453 38.1022 41.5214V39.0562C38.1022 38.7092 38.3846 38.4269 38.7316 38.4269C39.0786 38.4269 39.3609 38.7092 39.3609 39.0562V41.3071C39.3609 41.67 39.655 41.9642 40.018 41.9642C40.3811 41.9642 40.6752 41.67 40.6752 41.3071V39.0562C40.6752 38.5789 40.5019 38.1414 40.2153 37.8026V34.7649C40.2153 34.4179 40.4976 34.1356 40.8446 34.1356C41.1916 34.1356 41.4739 34.4179 41.4739 34.7649V38.6018C41.4739 38.9647 41.7681 39.259 42.1311 39.259C42.4941 39.259 42.7882 38.9647 42.7882 38.6018V33.6783C42.7882 33.3313 43.0705 33.049 43.4175 33.049C43.7645 33.049 44.0468 33.3313 44.0468 33.6783V38.6018C44.0468 38.9647 44.3409 39.259 44.7039 39.259C45.0669 39.259 45.3611 38.9647 45.3611 38.6018V35.2641C45.3611 34.9172 45.6434 34.6349 45.9905 34.6349C46.3374 34.6349 46.6197 34.9172 46.6197 35.2641V38.6018C46.6197 38.9647 46.9139 39.259 47.2769 39.259C47.6399 39.259 47.934 38.9647 47.934 38.6018V35.8356C47.934 35.4886 48.2163 35.2063 48.5633 35.2063C48.9103 35.2063 49.1926 35.4886 49.1926 35.8356V40.4921H46.4349C45.2622 40.4921 44.3082 41.4461 44.3082 42.6187V42.7704C43.4124 43.0507 42.7605 43.8883 42.7605 44.8753V45.0099C42.7605 46.2256 43.7496 47.2147 44.9654 47.2147H47.6555V48.836C46.4298 49.3818 45.0736 49.6857 43.6477 49.6857C42.4412 49.6856 41.2848 49.4681 40.2152 49.071V49.071Z" fill="black"/>
</g>
</svg>
