<svg width="60" height="60" viewBox="0 0 60 60" fill="none" xmlns="http://www.w3.org/2000/svg">
<mask id="mask0" mask-type="alpha" maskUnits="userSpaceOnUse" x="0" y="0" width="60" height="60">
<circle cx="30" cy="30" r="30" fill="#0BCAD4"/>
</mask>
<g mask="url(#mask0)">
<circle cx="30" cy="30" r="30" fill="#129B7F"/>
<path d="M42.5639 48.8485C39.5811 48.8485 37.0028 47.1188 35.7754 44.6083C37.0028 42.0978 39.5811 40.3681 42.5639 40.3681C44.2385 40.3681 45.7855 40.9134 47.0377 41.8359V38.2254C47.0377 36.079 45.2978 34.3391 43.1515 34.3391H16.0001C13.8538 34.3391 12.1139 36.079 12.1139 38.2254V38.5716H20.911C21.1494 38.5716 21.3428 38.7649 21.3428 39.0034V40.6442C21.3428 40.8827 21.1494 41.076 20.911 41.076H20.4792V51.5688H46.1741C46.651 51.5688 47.0377 51.1822 47.0377 50.7052V47.3807C45.7854 48.3032 44.2385 48.8485 42.5639 48.8485V48.8485Z" fill="#8AC9FE"/>
<path d="M16.1845 38.5716V38.2254C16.1845 36.079 17.9244 34.3391 20.0707 34.3391H16.0001C13.8538 34.3391 12.1139 36.079 12.1139 38.2254V38.5716H16.1845Z" fill="#60B7FF"/>
<path d="M29.754 40.7631C29.6541 40.8578 29.4974 40.8578 29.3975 40.7631L28.239 39.6646L27.244 51.5688H31.9074L30.9061 39.6706L29.754 40.7631Z" fill="#FD8087"/>
<path d="M29.754 40.7631C29.6541 40.8578 29.4974 40.8578 29.3975 40.7631L28.239 39.6646L27.244 51.5688H29L29.9159 40.6095L29.754 40.7631Z" fill="#FE646F"/>
<path d="M29.5757 36.1581L26.558 38.0708L29.3974 40.7632C29.4973 40.8579 29.654 40.8579 29.7539 40.7632L32.5934 38.0708L29.5757 36.1581Z" fill="#FE646F"/>
<path d="M26.558 38.0708L29.3974 40.7631C29.4973 40.8579 29.654 40.8579 29.7539 40.7631L30.9284 39.6494L28.194 37.0338L26.558 38.0708Z" fill="#FE646F"/>
<path d="M31.392 32.3678H27.7596C26.5603 32.3678 25.4389 32.0363 24.4805 31.4607V38.9166C24.4805 39.1209 24.7058 39.2448 24.8783 39.1355L29.5758 36.1581L34.2733 39.1355C34.4457 39.2448 34.6711 39.1209 34.6711 38.9166V31.4607C33.7127 32.0363 32.5912 32.3678 31.392 32.3678Z" fill="#60B7FF"/>
<path d="M24.4804 31.4607V38.9166C24.4804 39.1209 24.7058 39.2448 24.8782 39.1355L26.2365 38.2746V32.1834C25.6097 32.0298 25.0192 31.7842 24.4804 31.4607V31.4607Z" fill="#26A6FE"/>
<path d="M31.392 32.3678H27.7596C27.7101 32.3678 27.6611 32.3652 27.6118 32.3641L29.5758 36.1581L31.5398 32.3641C31.4905 32.3652 31.4415 32.3678 31.392 32.3678V32.3678Z" fill="#EA9B58"/>
<path d="M37.7701 20.564H39.0997C39.5341 20.564 39.9439 20.6684 40.3064 20.8524V15.6425C40.3064 12.3039 37.5999 9.59732 34.2612 9.59732H31.3115C32.674 10.5128 33.5726 12.068 33.5726 13.8293V15.979H35.2957C36.6622 15.979 37.77 17.0868 37.77 18.4533V20.564H37.7701Z" fill="#A44F3E"/>
<path d="M17.5369 14.3907C17.5369 15.2764 18.0775 16.0417 18.845 16.3736V20.8524C19.2075 20.6684 19.6173 20.564 20.0517 20.564H21.3813V18.4533C21.3813 17.0868 22.4891 15.979 23.8556 15.979H33.6591V13.8293C33.6591 10.9676 31.3392 8.64771 28.4775 8.64771H19.6959C18.5084 8.64771 17.5369 9.61926 17.5369 10.8067C17.5369 11.5509 17.9185 12.2101 18.4956 12.5987C17.9185 12.9873 17.5369 13.6465 17.5369 14.3907V14.3907Z" fill="#BB5D4C"/>
<path d="M17.5369 14.3907C17.5369 15.2764 18.0775 16.0417 18.845 16.3736V20.8524C19.2075 20.6684 19.6173 20.564 20.0517 20.564H21.3813V18.4533C21.3813 17.6093 21.8042 16.8645 22.4492 16.4179V16.3736C21.6818 16.0417 21.1412 15.2764 21.1412 14.3907C21.1412 13.8124 21.3716 13.2854 21.7451 12.8969C21.9053 12.7302 21.9053 12.4672 21.7451 12.3005C21.3716 11.912 21.1412 11.385 21.1412 10.8067C21.1412 9.61926 22.1128 8.64771 23.3002 8.64771H19.7443C18.6009 8.64771 17.6194 9.51727 17.542 10.6581C17.4873 11.4625 17.8804 12.1844 18.4956 12.5987C17.9185 12.9873 17.5369 13.6465 17.5369 14.3907V14.3907Z" fill="#A44F3E"/>
<path d="M21.3813 25.9896V20.564H20.0517C18.5771 20.564 17.3817 21.7594 17.3817 23.234V24.0397C17.3817 25.5143 18.5771 26.7097 20.0517 26.7097H21.4229C21.3963 26.4732 21.3813 26.2332 21.3813 25.9896V25.9896Z" fill="#EA9B58"/>
<path d="M39.0998 20.564H37.7702V25.9896C37.7702 26.2332 37.7552 26.4732 37.7286 26.7097H39.0999C40.5745 26.7097 41.7699 25.5143 41.7699 24.0397V23.234C41.7698 21.7594 40.5744 20.564 39.0998 20.564V20.564Z" fill="#EA9B58"/>
<path d="M31.392 32.3678H27.7596C24.237 32.3678 21.3813 29.5122 21.3813 25.9896V18.4533C21.3813 17.0867 22.4891 15.979 23.8556 15.979H35.2958C36.6624 15.979 37.7701 17.0868 37.7701 18.4533V25.9896C37.7702 29.5122 34.9145 32.3678 31.392 32.3678Z" fill="#F6A96C"/>
<path d="M24.0775 25.9896V18.4533C24.0775 17.0867 25.1853 15.979 26.5518 15.979H23.8557C22.4891 15.979 21.3814 17.0868 21.3814 18.4533V25.9896C21.3814 29.5121 24.237 32.3678 27.7596 32.3678H30.4557C26.9331 32.3678 24.0775 29.5122 24.0775 25.9896Z" fill="#EA9B58"/>
<path d="M42.5638 48.8485C46.313 48.8485 49.3523 46.9501 49.3523 44.6084C49.3523 42.2666 46.313 40.3682 42.5638 40.3682C38.8147 40.3682 35.7754 42.2666 35.7754 44.6084C35.7754 46.9501 38.8147 48.8485 42.5638 48.8485Z" fill="white"/>
<path d="M38.4813 44.6084C39.5187 42.4866 41.521 40.9227 43.9168 40.4893C43.4778 40.4099 43.0257 40.3682 42.5638 40.3682C39.581 40.3682 37.0028 42.0978 35.7753 44.6084C37.0028 47.1188 39.581 48.8485 42.5639 48.8485C43.0257 48.8485 43.4779 48.8068 43.9169 48.7274C41.521 48.2939 39.5187 46.7301 38.4813 44.6084V44.6084Z" fill="#F3F0F3"/>
<path d="M42.5638 46.5606C43.642 46.5606 44.5161 45.6865 44.5161 44.6083C44.5161 43.5301 43.642 42.6561 42.5638 42.6561C41.4856 42.6561 40.6116 43.5301 40.6116 44.6083C40.6116 45.6865 41.4856 46.5606 42.5638 46.5606Z" fill="#554E56"/>
<path d="M42.3858 44.6083C42.3858 43.8497 42.8189 43.1926 43.4509 42.8695C43.1847 42.7334 42.8834 42.6561 42.5638 42.6561C41.4856 42.6561 40.6116 43.5301 40.6116 44.6083C40.6116 45.6865 41.4856 46.5606 42.5638 46.5606C42.8834 46.5606 43.1847 46.4833 43.4509 46.3472C42.8189 46.024 42.3858 45.3669 42.3858 44.6083Z" fill="#433F43"/>
<path d="M9.42496 41.076V50.7052C9.42496 51.1822 9.81159 51.5688 10.2886 51.5688H20.5655V41.076H9.42496Z" fill="white"/>
<path d="M12.0734 50.7052V41.076H9.42496V50.7052C9.42496 51.1822 9.81159 51.5688 10.2886 51.5688H12.937C12.46 51.5688 12.0734 51.1822 12.0734 50.7052Z" fill="#F3F0F3"/>
<path d="M20.9109 38.5716H9.07951C8.84107 38.5716 8.64771 38.765 8.64771 39.0034V40.6442C8.64771 40.8827 8.84107 41.076 9.07951 41.076H20.9109C21.1493 41.076 21.3427 40.8827 21.3427 40.6442V39.0034C21.3427 38.765 21.1494 38.5716 20.9109 38.5716Z" fill="#554E56"/>
<path d="M12.1597 40.6442V39.0034C12.1597 38.765 12.3531 38.5716 12.5915 38.5716H9.07951C8.84107 38.5716 8.64771 38.765 8.64771 39.0034V40.6442C8.64771 40.8827 8.84107 41.076 9.07951 41.076H12.5915C12.353 41.076 12.1597 40.8827 12.1597 40.6442Z" fill="#433F43"/>
<path d="M25.6031 20.4791C25.2454 20.4791 24.9554 20.769 24.9554 21.1268V22.9404C24.9554 23.2982 25.2454 23.5881 25.6031 23.5881C25.9608 23.5881 26.2508 23.2982 26.2508 22.9404V21.1268C26.2508 20.769 25.9608 20.4791 25.6031 20.4791Z" fill="black"/>
<path d="M33.5483 23.5881C33.9061 23.5881 34.196 23.2982 34.196 22.9404V21.1268C34.196 20.769 33.9061 20.4791 33.5483 20.4791C33.1905 20.4791 32.9006 20.769 32.9006 21.1268V22.9404C32.9006 23.2982 33.1905 23.5881 33.5483 23.5881Z" fill="black"/>
<path d="M28.6002 25.8334H29.5757C29.9335 25.8334 30.2234 25.5435 30.2234 25.1857C30.2234 24.8279 29.9335 24.538 29.5757 24.538H29.4378L30.2025 21.5969C30.2925 21.2507 30.0849 20.8971 29.7386 20.8071C29.3924 20.7173 29.0388 20.9247 28.9488 21.2709L27.9733 25.0227C27.9228 25.2167 27.9651 25.4233 28.0878 25.5819C28.2105 25.7406 28.3997 25.8334 28.6002 25.8334V25.8334Z" fill="black"/>
<path d="M32.6762 28.3844C32.9292 28.1314 32.9292 27.7213 32.6762 27.4684C32.4232 27.2155 32.0131 27.2155 31.7602 27.4684C30.5556 28.6729 28.5958 28.6729 27.3913 27.4684C27.1383 27.2155 26.7282 27.2155 26.4754 27.4684C26.2224 27.7214 26.2224 28.1315 26.4754 28.3844C27.3302 29.2391 28.453 29.6666 29.5759 29.6666C30.6986 29.6666 31.8214 29.2392 32.6762 28.3844Z" fill="black"/>
<path d="M42.5637 42.0084C41.1301 42.0084 39.9639 43.1747 39.9639 44.6083C39.9639 46.0419 41.1302 47.2082 42.5637 47.2082C43.9973 47.2082 45.1637 46.0419 45.1637 44.6083C45.1637 43.1747 43.9974 42.0084 42.5637 42.0084ZM42.5637 45.9129C41.8445 45.9129 41.2593 45.3277 41.2593 44.6084C41.2593 43.8891 41.8445 43.3039 42.5637 43.3039C43.2831 43.3039 43.8683 43.8891 43.8683 44.6084C43.8684 45.3277 43.2831 45.9129 42.5637 45.9129Z" fill="black"/>
<path d="M49.9342 44.3238C49.3996 43.2306 48.6306 42.2738 47.6853 41.5172V38.2254C47.6853 35.7254 45.6513 33.6914 43.1514 33.6914H41.1768C40.819 33.6914 40.5291 33.9814 40.5291 34.3392C40.5291 34.6969 40.819 34.9869 41.1768 34.9869H43.1514C44.9371 34.9869 46.3899 36.4396 46.3899 38.2254V40.6676C45.2153 40.0468 43.9056 39.7204 42.5638 39.7204C40.9989 39.7204 39.4772 40.163 38.1632 41.0005C36.8851 41.8151 35.8582 42.9642 35.1934 44.3237C35.1057 44.5032 35.1057 44.7132 35.1934 44.8927C35.8581 46.2521 36.8851 47.4013 38.1632 48.2159C39.4772 49.0533 40.9988 49.496 42.5638 49.496C43.9056 49.496 45.2153 49.1696 46.3899 48.5488V50.7052C46.3899 50.8243 46.2931 50.9211 46.174 50.9211H32.503L31.5777 39.9264L32.6729 38.8879L33.9265 39.6825C34.0744 39.7762 34.2429 39.8234 34.412 39.8234C34.5621 39.8234 34.7127 39.7861 34.8491 39.711C35.1388 39.5516 35.3187 39.2473 35.3187 38.9166V34.9869H38.1542C38.512 34.9869 38.8019 34.6969 38.8019 34.3392C38.8019 33.9814 38.512 33.6914 38.1542 33.6914H35.3187V31.811C36.825 30.7912 37.9172 29.2038 38.2831 27.3574H39.0998C40.9292 27.3574 42.4175 25.8692 42.4175 24.0397V23.2339C42.4175 22.0908 41.8364 21.0809 40.9542 20.4841V15.6426C40.9542 11.9521 37.9517 8.94962 34.2613 8.94962H31.6685C30.7353 8.33819 29.6329 8 28.4774 8H19.6959C18.1483 8 16.8892 9.25905 16.8892 10.8067C16.8892 11.4695 17.1236 12.1006 17.5384 12.5987C17.1236 13.0968 16.8892 13.7279 16.8892 14.3907C16.8892 15.3617 17.3908 16.2517 18.1973 16.7618V20.4841C17.315 21.0809 16.734 22.0908 16.734 23.2339V24.0397C16.734 25.8692 18.2223 27.3574 20.0517 27.3574H20.8683C21.2342 29.2038 22.3264 30.7912 23.8327 31.811V33.6914H16C13.6014 33.6914 11.6331 35.564 11.4772 37.9238H9.07951C8.48422 37.9238 8 38.408 8 39.0033V40.6442C8 41.1344 8.32877 41.5487 8.77724 41.6798V50.7052C8.77724 51.5385 9.45526 52.2165 10.2886 52.2165H46.2432C47.0765 52.2165 47.6852 51.5385 47.6852 50.7052V47.6995C48.6305 46.9429 49.3996 45.9861 49.9341 44.8928C50.0219 44.7133 50.0219 44.5033 49.9342 44.3238V44.3238ZM34.0233 38.2102L30.4238 35.9286L31.9437 32.9926C32.6738 32.9356 33.3725 32.7667 34.0233 32.5027V38.2102ZM28.6783 33.0155H30.4731L29.5757 34.7491L28.6783 33.0155ZM28.7277 35.9287L25.1282 38.2102V32.5028C25.779 32.7668 26.4778 32.9357 27.2079 32.9927L28.7277 35.9287ZM41.1221 23.2339V24.0397C41.1221 25.1548 40.2149 26.062 39.0998 26.062H38.416C38.4162 26.0378 38.4178 26.0138 38.4178 25.9895V21.2116H39.0997C40.2149 21.2116 41.1221 22.1188 41.1221 23.2339V23.2339ZM20.0517 26.062C18.9365 26.062 18.0294 25.1548 18.0294 24.0397V23.2339C18.0294 22.1188 18.9366 21.2116 20.0517 21.2116H20.7336V25.9895C20.7336 26.0138 20.7351 26.0378 20.7354 26.062H20.0517ZM20.7336 18.4533V19.9162H20.0517C19.8611 19.9162 19.6745 19.9332 19.4927 19.9642V16.3736C19.4927 16.1153 19.3392 15.8817 19.1021 15.7791C18.5447 15.5381 18.1846 14.993 18.1846 14.3907C18.1846 13.8887 18.4361 13.4196 18.8573 13.1359C19.0361 13.0156 19.1433 12.8142 19.1433 12.5987C19.1433 12.3832 19.0361 12.1818 18.8573 12.0614C18.4361 11.7778 18.1846 11.3086 18.1846 10.8067C18.1846 9.97342 18.8626 9.29541 19.6959 9.29541H28.4775C30.0229 9.29541 31.4475 10.0725 32.2882 11.374C32.4823 11.6745 32.8834 11.7608 33.1836 11.5666C33.4841 11.3725 33.5705 10.9716 33.3762 10.6711C33.281 10.5236 33.1796 10.3817 33.0731 10.2449H34.2613C37.2375 10.2449 39.6588 12.6662 39.6588 15.6425V19.9642C39.4769 19.9332 39.2904 19.9162 39.0998 19.9162H38.4179V18.4533C38.4179 16.7318 37.0173 15.3313 35.2959 15.3313H34.3069V14.0452C34.3069 13.6874 34.0169 13.3975 33.6592 13.3975C33.3014 13.3975 33.0114 13.6874 33.0114 14.0452V15.3313H23.8557C22.1342 15.3313 20.7336 16.7318 20.7336 18.4533V18.4533ZM22.029 25.9896V18.4533C22.029 17.4461 22.8485 16.6267 23.8557 16.6267H35.2958C36.303 16.6267 37.1224 17.4461 37.1224 18.4533V25.9896C37.1224 29.1494 34.5517 31.7201 31.3919 31.7201H27.7595C24.5997 31.7201 22.029 29.1493 22.029 25.9896V25.9896ZM9.29541 39.2193H20.695V40.4283H9.29541V39.2193ZM26.6482 50.9211H21.2132V48.4167C21.2132 48.0589 20.9232 47.769 20.5655 47.769C20.2078 47.769 19.9178 48.0589 19.9178 48.4167V50.9211H10.2886C10.1696 50.9211 10.0727 50.8243 10.0727 50.7052V41.7237H19.9178V45.3941C19.9178 45.7519 20.2078 46.0418 20.5655 46.0418C20.9232 46.0418 21.2132 45.7519 21.2132 45.3941V41.6799C21.6617 41.5488 21.9905 41.1345 21.9905 40.6442V39.0034C21.9905 38.4081 21.5063 37.9239 20.911 37.9239H12.7761C12.9287 36.2791 14.3161 34.9869 16.0001 34.9869H23.8328V38.9166C23.8328 39.2473 24.0128 39.5517 24.3024 39.711C24.5921 39.8705 24.9456 39.8595 25.2251 39.6825L26.4786 38.888L27.5676 39.9205L26.6482 50.9211ZM27.948 50.9211L28.772 41.0627L28.9516 41.233C29.1266 41.3989 29.3511 41.4819 29.5757 41.4819C29.8002 41.4819 30.0247 41.3989 30.1996 41.233L30.3737 41.0679L31.203 50.9211H27.948ZM29.5758 40.0395L27.607 38.1728L29.5758 36.9249L31.5445 38.1728L29.5758 40.0395ZM42.5638 48.2008C40.0117 48.2008 37.7184 46.8324 36.5044 44.6083C37.7185 42.3841 40.0117 41.0158 42.5638 41.0158C45.1159 41.0158 47.4091 42.3841 48.6233 44.6083C47.4093 46.8324 45.1159 48.2008 42.5638 48.2008Z" fill="black"/>
<path d="M16.5065 44.185C16.8642 44.185 17.1542 43.8951 17.1542 43.5373C17.1542 43.1795 16.8642 42.8896 16.5065 42.8896H13.4839C13.1262 42.8896 12.8362 43.1795 12.8362 43.5373V47.8553C12.8362 48.2131 13.1262 48.503 13.4839 48.503H16.5065C16.8642 48.503 17.1542 48.2131 17.1542 47.8553C17.1542 47.4975 16.8642 47.2076 16.5065 47.2076H14.1316V46.344H16.5065C16.8642 46.344 17.1542 46.0541 17.1542 45.6963C17.1542 45.3385 16.8642 45.0486 16.5065 45.0486H14.1316V44.185H16.5065Z" fill="black"/>
</g>
</svg>
