<svg width="80" height="80" viewBox="0 0 80 80" fill="none" xmlns="http://www.w3.org/2000/svg">
<path d="M16.3266 79.9999H15.0341C6.7443 79.9999 0 74.8206 0 68.4544C0 62.0882 6.7443 56.9089 15.0341 56.9089H25.2382V49.4546H31.3607V56.9089H53.6736C59.5208 56.9089 64.3726 54.1272 65.7465 49.9871L71.6794 51.1482C69.6026 57.4062 62.3667 61.6107 53.6736 61.6107H31.3605V68.4544C31.3605 74.8206 24.6164 79.9999 16.3266 79.9999ZM15.0339 61.6107C10.12 61.6107 6.12226 64.6808 6.12226 68.4544C6.12226 72.228 10.12 75.2981 15.0339 75.2981H16.3264C21.2403 75.2981 25.238 72.228 25.238 68.4544V61.6107H15.0339Z" fill="#129B7F"/>
<path d="M65.7463 49.9871C64.3724 54.1272 59.5208 56.9089 53.6734 56.9089H31.3605V49.4546H28.1631V75.5596C30.1634 73.5988 31.3605 71.1325 31.3605 68.4543V61.6105H53.6734C62.3665 61.6105 69.6024 57.4061 71.6792 51.148L65.7463 49.9871Z" fill="#1CFFD6"/>
<path d="M69.3198 50.5878C73.5276 50.5878 76.9388 47.9682 76.9388 44.7368C76.9388 41.5053 73.5276 38.8857 69.3198 38.8857C65.1119 38.8857 61.7008 41.5053 61.7008 44.7368C61.7008 47.9682 65.1119 50.5878 69.3198 50.5878Z" fill="#DFFFF8"/>
<path d="M69.3198 52.9386C63.4308 52.9386 58.6395 49.2592 58.6395 44.7367C58.6395 40.2141 63.4308 36.5347 69.3198 36.5347C75.209 36.5347 80 40.2141 80 44.7367C80.0002 49.2594 75.209 52.9386 69.3198 52.9386ZM69.3198 41.2364C66.8067 41.2364 64.762 42.8067 64.762 44.7367C64.762 46.6666 66.8067 48.2369 69.3198 48.2369C71.833 48.2369 73.8775 46.6666 73.8775 44.7367C73.8777 42.8067 71.833 41.2364 69.3198 41.2364V41.2364Z" fill="#4E4EDA"/>
<path d="M28.1634 51.8057C13.0841 51.8057 0.816345 42.3846 0.816345 30.8045V10.1309C0.816345 5.97058 5.2237 2.58594 10.6409 2.58594H13.6111V7.2877H10.6409C8.59963 7.2877 6.93881 8.56313 6.93881 10.1309V30.8045C6.93881 39.7921 16.4601 47.1039 28.1634 47.1039C39.8666 47.1039 49.3879 39.7921 49.3879 30.8045V10.4145C49.3879 8.84696 47.7271 7.57153 45.6858 7.57153H42.6589V2.86977H45.6858C51.103 2.86977 55.5104 6.25441 55.5104 10.4145V30.8045C55.5104 42.3845 43.2424 51.8057 28.1634 51.8057Z" fill="#4F4FCF"/>
<path d="M45.6856 2.87012H42.6587V7.57188H45.6856C47.7269 7.57188 49.3877 8.84731 49.3877 10.4149V30.8049C49.3877 39.7924 39.8664 47.1043 28.1631 47.1043V51.8061C43.2424 51.8061 55.5101 42.385 55.5101 30.8049V10.4149C55.5104 6.2546 51.103 2.87012 45.6856 2.87012V2.87012Z" fill="#4F4FCF"/>
<path d="M37.8968 0C34.3521 0 31.4682 2.21469 31.4682 4.93685C31.4682 7.65901 34.3521 9.8737 37.8968 9.8737H44.1893V0H37.8968Z" fill="#1CFFD6"/>
<path d="M18.3729 0H12.0804V9.8737H18.3729C21.9176 9.8737 24.8015 7.65901 24.8015 4.93685C24.8015 2.21469 21.9178 0 18.3729 0Z" fill="#129B7F"/>
</svg>
